<svg width="40" height="40" viewBox="0 0 40 40" fill="none" xmlns="http://www.w3.org/2000/svg">
<g clip-path="url(#clip0_10_72)">
<path d="M36.25 7.5C36.5815 7.5 36.8995 7.6317 37.1339 7.86612C37.3683 8.10054 37.5 8.41848 37.5 8.75V31.25C37.5 31.5815 37.3683 31.8995 37.1339 32.1339C36.8995 32.3683 36.5815 32.5 36.25 32.5H3.75C3.41848 32.5 3.10054 32.3683 2.86612 32.1339C2.6317 31.8995 2.5 31.5815 2.5 31.25V8.75C2.5 8.41848 2.6317 8.10054 2.86612 7.86612C3.10054 7.6317 3.41848 7.5 3.75 7.5H36.25ZM3.75 5C2.75544 5 1.80161 5.39509 1.09835 6.09835C0.395088 6.80161 0 7.75544 0 8.75L0 31.25C0 32.2446 0.395088 33.1984 1.09835 33.9017C1.80161 34.6049 2.75544 35 3.75 35H36.25C37.2446 35 38.1984 34.6049 38.9016 33.9017C39.6049 33.1984 40 32.2446 40 31.25V8.75C40 7.75544 39.6049 6.80161 38.9016 6.09835C38.1984 5.39509 37.2446 5 36.25 5H3.75Z" fill="#06536B"/>
<path d="M7.5 21.25C7.5 20.9185 7.6317 20.6005 7.86612 20.3661C8.10054 20.1317 8.41848 20 8.75 20H31.25C31.5815 20 31.8995 20.1317 32.1339 20.3661C32.3683 20.6005 32.5 20.9185 32.5 21.25C32.5 21.5815 32.3683 21.8995 32.1339 22.1339C31.8995 22.3683 31.5815 22.5 31.25 22.5H8.75C8.41848 22.5 8.10054 22.3683 7.86612 22.1339C7.6317 21.8995 7.5 21.5815 7.5 21.25ZM7.5 26.25C7.5 25.9185 7.6317 25.6005 7.86612 25.3661C8.10054 25.1317 8.41848 25 8.75 25H23.75C24.0815 25 24.3995 25.1317 24.6339 25.3661C24.8683 25.6005 25 25.9185 25 26.25C25 26.5815 24.8683 26.8995 24.6339 27.1339C24.3995 27.3683 24.0815 27.5 23.75 27.5H8.75C8.41848 27.5 8.10054 27.3683 7.86612 27.1339C7.6317 26.8995 7.5 26.5815 7.5 26.25ZM7.5 13.75C7.5 13.4185 7.6317 13.1005 7.86612 12.8661C8.10054 12.6317 8.41848 12.5 8.75 12.5H31.25C31.5815 12.5 31.8995 12.6317 32.1339 12.8661C32.3683 13.1005 32.5 13.4185 32.5 13.75V16.25C32.5 16.5815 32.3683 16.8995 32.1339 17.1339C31.8995 17.3683 31.5815 17.5 31.25 17.5H8.75C8.41848 17.5 8.10054 17.3683 7.86612 17.1339C7.6317 16.8995 7.5 16.5815 7.5 16.25V13.75Z" fill="#06536B"/>
</g>
<defs>
<clipPath id="clip0_10_72">
<rect width="40" height="40" rx="10" fill="white"/>
</clipPath>
</defs>
</svg>
