<svg width="14" height="11" viewBox="0 0 14 11" fill="none" xmlns="http://www.w3.org/2000/svg">
<path d="M5.50002 7.58579L11.792 1.29287C11.8849 1.19974 11.9952 1.12586 12.1167 1.07545C12.2382 1.02503 12.3685 0.999084 12.5 0.999084C12.6315 0.999084 12.7618 1.02503 12.8833 1.07545C13.0045 1.12576 13.1147 1.19947 13.2075 1.29235C13.3004 1.38516 13.3742 1.49538 13.4245 1.61671C13.4749 1.7382 13.5009 1.86844 13.5009 1.99998C13.5009 2.13151 13.4749 2.26176 13.4245 2.38325C13.3742 2.50461 13.3004 2.61486 13.2074 2.7077C13.2073 2.70779 13.2072 2.70789 13.2071 2.70798L6.20799 9.70708C6.20792 9.70716 6.20785 9.70723 6.20778 9.7073C6.11493 9.80032 6.00466 9.87413 5.88326 9.92451C5.76177 9.97492 5.63153 10.0009 5.49999 10.0009C5.36846 10.0009 5.23821 9.97492 5.11672 9.92451C4.99533 9.87414 4.88505 9.80032 4.79221 9.7073L4.79244 9.70753L5.50002 7.58579ZM5.50002 7.58579L2.7076 4.79248L2.70754 4.79242C2.51989 4.60477 2.26537 4.49935 1.99999 4.49935C1.73461 4.49935 1.48009 4.60477 1.29244 4.79242C1.10478 4.98008 0.999359 5.23459 0.999359 5.49998C0.999359 5.76536 1.10478 6.01988 1.29244 6.20753L4.79199 9.70708L5.50002 7.58579Z" fill="#06536B" stroke="#06536B"/>
</svg>
