<svg width="22" height="14" viewBox="0 0 22 14" fill="none" xmlns="http://www.w3.org/2000/svg">
<path d="M19.1154 1.61535L19.1154 1.61532C19.2316 1.49916 19.3695 1.40702 19.5213 1.34415L19.7124 1.80544L19.5213 1.34415C19.6731 1.28128 19.8357 1.24893 20 1.24893C20.1643 1.24893 20.3269 1.28128 20.4787 1.34415C20.6305 1.40702 20.7684 1.49916 20.8846 1.61532L20.8846 1.61533C21.0007 1.73148 21.0929 1.86938 21.1557 2.02116C21.2186 2.17293 21.2509 2.3356 21.2509 2.49988C21.2509 2.66415 21.2186 2.82682 21.1557 2.97859C21.0929 3.13037 21.0007 3.26827 20.8846 3.38443L11.885 12.384L19.1154 1.61535ZM19.1154 1.61535L11 9.73221L2.885 1.61577C2.88491 1.61568 2.88482 1.61559 2.88474 1.61551C2.76868 1.49922 2.63083 1.40696 2.47908 1.34399C2.32722 1.28097 2.16441 1.24854 2 1.24854C1.83558 1.24854 1.67278 1.28097 1.52091 1.34399C1.36925 1.40692 1.23147 1.49912 1.11544 1.61532C0.999247 1.73134 0.907046 1.86912 0.84411 2.02079C0.781094 2.17265 0.748657 2.33546 0.748657 2.49988C0.748657 2.66429 0.781094 2.8271 0.84411 2.97896C0.90708 3.13071 0.999346 3.26856 1.11563 3.38462C1.11572 3.3847 1.1158 3.38479 1.11589 3.38488L10.115 12.384L19.1154 1.61535ZM10.7125 12.1939L10.5209 12.6558C10.3692 12.5928 10.2315 12.5006 10.1154 12.3844L10.7125 12.1939ZM10.7125 12.1939L10.5209 12.6558C10.6728 12.7188 10.8356 12.7512 11 12.7512C11.1644 12.7512 11.3272 12.7188 11.4791 12.6558C11.6307 12.5928 11.7685 12.5006 11.8846 12.3844L10.7125 12.1939Z" fill="#06536B" stroke="#06536B"/>
</svg>
