<svg width="22" height="14" viewBox="0 0 22 14" fill="none" xmlns="http://www.w3.org/2000/svg">
<path d="M2.88459 12.3846L2.88456 12.3847C2.7684 12.5008 2.63049 12.593 2.47872 12.6558L2.28765 12.1946L2.47872 12.6558C2.32695 12.7187 2.16428 12.7511 2 12.7511C1.83573 12.7511 1.67306 12.7187 1.52128 12.6558C1.36951 12.593 1.23161 12.5008 1.11545 12.3847L1.11545 12.3847C0.999289 12.2685 0.907145 12.1306 0.844278 11.9788C0.78141 11.8271 0.749056 11.6644 0.749056 11.5001C0.749056 11.3359 0.78141 11.1732 0.844278 11.0214C0.907145 10.8696 0.999289 10.7317 1.11545 10.6156L10.115 1.61602L2.88459 12.3846ZM2.88459 12.3846L11 4.26779L19.115 12.3842C19.1151 12.3843 19.1152 12.3844 19.1153 12.3845C19.2313 12.5008 19.3692 12.593 19.5209 12.656C19.6728 12.719 19.8356 12.7515 20 12.7515C20.1644 12.7515 20.3272 12.719 20.4791 12.656C20.6308 12.5931 20.7685 12.5009 20.8846 12.3847C21.0008 12.2687 21.093 12.1309 21.1559 11.9792C21.2189 11.8273 21.2513 11.6645 21.2513 11.5001C21.2513 11.3357 21.2189 11.1729 21.1559 11.021C21.0929 10.8693 21.0007 10.7314 20.8844 10.6154C20.8843 10.6153 20.8842 10.6152 20.8841 10.6151L11.885 1.61602L2.88459 12.3846ZM11.2875 1.80605L11.4791 1.34424C11.6308 1.40717 11.7685 1.49937 11.8846 1.61557L11.2875 1.80605ZM11.2875 1.80605L11.4791 1.34423C11.3272 1.28122 11.1644 1.24878 11 1.24878C10.8356 1.24878 10.6728 1.28122 10.5209 1.34423C10.3693 1.40717 10.2315 1.49937 10.1154 1.61557L11.2875 1.80605Z" fill="#06536B" stroke="#06536B"/>
</svg>
