<svg width="40" height="40" viewBox="0 0 40 40" fill="none" xmlns="http://www.w3.org/2000/svg">
<path d="M26.195 4.11749C26.2433 3.96056 26.2601 3.79566 26.2447 3.63221C26.2292 3.46875 26.1817 3.30995 26.1049 3.16486C26.028 3.01977 25.9233 2.89123 25.7968 2.78659C25.6703 2.68195 25.5244 2.60325 25.3675 2.55499C25.2106 2.50673 25.0457 2.48985 24.8822 2.50532C24.7188 2.52078 24.56 2.56829 24.4149 2.64513C24.2698 2.72197 24.1412 2.82664 24.0366 2.95316C23.932 3.07967 23.8533 3.22556 23.805 3.38249L13.805 35.8825C13.7075 36.1994 13.74 36.5421 13.8951 36.8351C14.0503 37.1281 14.3156 37.3475 14.6325 37.445C14.9494 37.5425 15.2921 37.51 15.5851 37.3548C15.8782 37.1997 16.0975 36.9344 16.195 36.6175L26.195 4.11749ZM12.135 10.365C12.2514 10.4811 12.3438 10.619 12.4068 10.7709C12.4698 10.9228 12.5022 11.0856 12.5022 11.25C12.5022 11.4144 12.4698 11.5772 12.4068 11.7291C12.3438 11.8809 12.2514 12.0189 12.135 12.135L4.2675 20L12.135 27.865C12.3697 28.0997 12.5016 28.4181 12.5016 28.75C12.5016 29.0819 12.3697 29.4003 12.135 29.635C11.9003 29.8697 11.5819 30.0016 11.25 30.0016C10.9181 30.0016 10.5997 29.8697 10.365 29.635L1.615 20.885C1.49859 20.7689 1.40623 20.6309 1.34322 20.4791C1.2802 20.3272 1.24776 20.1644 1.24776 20C1.24776 19.8356 1.2802 19.6728 1.34322 19.5209C1.40623 19.369 1.49859 19.2311 1.615 19.115L10.365 10.365C10.4811 10.2486 10.6191 10.1562 10.7709 10.0932C10.9228 10.0302 11.0856 9.99775 11.25 9.99775C11.4144 9.99775 11.5772 10.0302 11.7291 10.0932C11.8809 10.1562 12.0189 10.2486 12.135 10.365ZM27.865 10.365C27.7486 10.4811 27.6562 10.619 27.5932 10.7709C27.5302 10.9228 27.4978 11.0856 27.4978 11.25C27.4978 11.4144 27.5302 11.5772 27.5932 11.7291C27.6562 11.8809 27.7486 12.0189 27.865 12.135L35.7325 20L27.865 27.865C27.7488 27.9812 27.6566 28.1192 27.5937 28.271C27.5308 28.4229 27.4984 28.5856 27.4984 28.75C27.4984 28.9143 27.5308 29.0771 27.5937 29.2289C27.6566 29.3808 27.7488 29.5188 27.865 29.635C27.9812 29.7512 28.1192 29.8434 28.271 29.9063C28.4229 29.9692 28.5856 30.0016 28.75 30.0016C28.9144 30.0016 29.0771 29.9692 29.229 29.9063C29.3808 29.8434 29.5188 29.7512 29.635 29.635L38.385 20.885C38.5014 20.7689 38.5938 20.6309 38.6568 20.4791C38.7198 20.3272 38.7522 20.1644 38.7522 20C38.7522 19.8356 38.7198 19.6728 38.6568 19.5209C38.5938 19.369 38.5014 19.2311 38.385 19.115L29.635 10.365C29.5189 10.2486 29.3809 10.1562 29.2291 10.0932C29.0772 10.0302 28.9144 9.99775 28.75 9.99775C28.5856 9.99775 28.4228 10.0302 28.2709 10.0932C28.1191 10.1562 27.9811 10.2486 27.865 10.365Z" fill="#06536B"/>
</svg>
