<svg width="150" height="117" viewBox="0 0 150 117" fill="none" xmlns="http://www.w3.org/2000/svg">
<path d="M0.0275837 43.8727C0.447579 41.1727 1.43757 38.5927 2.72755 36.1928C4.01754 33.7928 5.66752 31.5428 7.6175 29.5328C8.60748 28.5428 9.65747 27.5829 10.8275 26.7129C11.9974 25.8129 13.2874 25.0029 14.8174 24.2829L15.0874 24.1629L15.5074 24.0129C15.7774 23.9229 16.0774 23.8329 16.3774 23.7429C16.9474 23.5329 17.5174 23.5029 18.0574 23.4129C18.6574 23.3229 19.1974 23.3529 19.7074 23.3529C20.2473 23.3529 20.7873 23.3829 21.2973 23.5029C23.3973 23.8329 25.2873 24.7929 26.8773 25.9629C27.2673 26.2629 27.6273 26.5929 27.9873 26.8929C28.3473 27.2529 28.6473 27.6129 28.9472 27.9728C29.6072 28.6628 30.0572 29.4128 30.5072 30.1628C31.0172 30.9128 31.2872 31.6928 31.6472 32.4428C32.0072 33.2228 32.1872 33.9728 32.4272 34.7228C33.2672 37.7527 33.5072 40.6627 33.4172 43.4227L33.3272 45.4926L33.0872 47.5026C32.9972 48.1626 32.9372 48.8526 32.8472 49.5126L32.4872 51.4626L32.1272 53.4126L31.7372 55.2125C31.4672 56.4125 31.1972 57.6425 30.8972 58.8425C29.7872 63.6724 28.4373 68.4124 27.1473 73.1523C25.8573 77.8923 24.4473 82.6022 23.0373 87.2822C20.1873 96.6721 17.1574 105.972 13.8274 115.242L9.02748 113.742C10.1375 110.292 11.4275 106.932 12.8374 103.632C14.3074 100.362 15.8374 97.0921 17.5474 93.9721C20.9073 87.6422 24.6573 81.5222 28.7373 75.6723C36.9272 63.9424 46.347 53.0226 56.8469 43.1527C67.3468 33.3128 78.9867 24.5229 91.5865 17.173C104.186 9.82306 117.836 4.12312 132.116 0.253167C136.076 -0.796821 140.126 1.51315 141.206 5.44311C142.286 9.37306 139.946 13.423 135.986 14.503C135.866 14.533 135.716 14.563 135.596 14.593L135.506 14.623C122.426 17.383 109.586 21.8229 97.4965 28.0028C85.4066 34.1528 73.9767 41.7427 63.4468 50.5326C52.947 59.3225 43.2871 69.2524 34.7672 80.0822C30.5072 85.4822 26.5473 91.1521 22.9773 97.0321C21.1473 99.942 19.5274 102.972 17.9374 106.032C16.4074 109.062 14.9974 112.182 13.7674 115.332C13.2574 116.622 11.8174 117.282 10.4975 116.772C9.32748 116.322 8.66748 115.092 8.93748 113.892L8.96748 113.832C11.0075 104.292 13.1674 94.7521 15.3274 85.2422L18.5374 70.9924C19.5874 66.2524 20.6073 61.5125 21.5973 56.7725C22.5873 51.9726 23.4573 47.5026 23.4573 43.2727C23.5173 42.1927 23.3973 41.2027 23.3373 40.2127C23.3073 39.7027 23.1873 39.2827 23.0973 38.8027L22.9773 38.1127L22.7973 37.4827C22.3173 35.7728 21.5073 34.5428 20.7573 33.9728C20.0074 33.3728 19.2274 33.4328 18.9874 33.5528C18.2974 33.8228 17.4874 34.3028 16.6774 34.8428C15.8674 35.3828 15.0274 35.9828 14.1874 36.6427C10.8275 39.2527 7.79749 42.4027 4.64753 45.9126L4.55753 46.0026C3.56754 47.0526 1.91756 47.1726 0.867574 46.2126C0.177582 45.6126 -0.0924149 44.7127 0.0275837 43.8727Z" fill="#0C556D"/>
<path d="M18.9573 110.172C18.4473 109.842 17.7273 110.022 17.4274 110.532L15.2974 113.982C14.9974 114.432 15.1174 115.032 15.5674 115.332C16.0174 115.662 16.6474 115.542 16.9774 115.092V115.062L19.2573 111.792L19.2873 111.762C19.2873 111.732 19.3173 111.732 19.3173 111.702C19.6473 111.192 19.4673 110.502 18.9573 110.172Z" fill="#091B33"/>
<path d="M21.9272 103.812L19.6172 107.172C19.2572 107.712 19.3772 108.432 19.8872 108.822C20.4272 109.242 21.2072 109.122 21.5972 108.612L21.6272 108.582L24.0572 105.432L24.0872 105.402C24.0872 105.372 24.1172 105.372 24.1172 105.342C24.5372 104.742 24.3872 103.902 23.7572 103.482C23.1872 103.032 22.3472 103.182 21.9272 103.812Z" fill="#091B33"/>
<path d="M26.7573 97.272L24.2973 100.512C23.8473 101.112 23.9373 101.982 24.5373 102.492C25.1373 103.002 26.0673 102.942 26.5773 102.312L26.6073 102.282L29.1873 99.252L29.2173 99.222C29.2473 99.192 29.2473 99.192 29.2773 99.162C29.7873 98.472 29.6673 97.482 28.9773 96.972C28.2573 96.462 27.2673 96.612 26.7573 97.272Z" fill="#091B33"/>
<path d="M31.8572 90.9721L29.2772 94.0921C28.7372 94.7521 28.7972 95.772 29.4272 96.372C30.1172 97.002 31.1672 96.942 31.7972 96.282L31.8272 96.252L34.5271 93.3121L34.5571 93.2821C34.5871 93.2521 34.5871 93.2221 34.6171 93.2221C35.2471 92.4721 35.1271 91.3621 34.3771 90.7321C33.6271 90.1021 32.4872 90.2221 31.8572 90.9721Z" fill="#091B33"/>
<path d="M145.286 30.2228L140.756 29.7128C139.946 29.6228 139.196 29.7428 138.476 29.9828C137.816 29.7128 137.066 29.5628 136.286 29.5928L131.906 29.8328C131.126 29.8628 130.406 30.1028 129.776 30.4628C129.086 30.2828 128.366 30.1928 127.616 30.3428L123.416 31.0928C122.666 31.2428 122.006 31.5428 121.406 31.9928C120.716 31.8428 119.996 31.8428 119.276 32.0528L115.196 33.1928C114.476 33.4028 113.846 33.7928 113.306 34.2727C112.616 34.1828 111.896 34.2128 111.176 34.4827L107.246 35.8927C106.526 36.1327 105.926 36.5827 105.476 37.1227C104.786 37.0627 104.066 37.1227 103.376 37.4227L99.5665 39.0727C98.8765 39.3727 98.3365 39.9127 97.9165 40.4827C97.1965 40.4227 96.4765 40.4827 95.8165 40.8127L92.1266 42.6427C91.4366 43.0026 90.9566 43.5426 90.5666 44.1726C89.8466 44.1126 89.1266 44.2026 88.4666 44.5626L84.8666 46.5726C84.2067 46.9626 83.7267 47.5326 83.4267 48.1926C82.7067 48.1326 81.9867 48.2526 81.3267 48.6426L77.8467 50.8026C77.1867 51.2226 76.7667 51.8525 76.4967 52.5125C75.7768 52.4525 75.0568 52.6025 74.3968 53.0225L71.0068 55.3325C70.3468 55.7825 69.9568 56.4425 69.7468 57.1325C69.0268 57.0725 68.2768 57.2525 67.6768 57.7025L64.3769 60.1324C63.7469 60.6124 63.3569 61.3024 63.2069 62.0224C62.4869 61.9624 61.7369 62.1424 61.1369 62.6524L57.957 65.2024C57.327 65.7124 56.997 66.4624 56.967 67.2424C56.217 67.1224 55.437 67.3024 54.807 67.8424L51.717 70.5123C51.087 71.0823 50.817 71.8923 50.907 72.7023C50.127 72.5223 49.3171 72.6723 48.6871 73.2723L45.7171 76.0623C45.0871 76.6623 44.8771 77.5622 45.0871 78.3722C44.3071 78.1022 43.4071 78.2822 42.8071 78.9122L39.9572 81.8222C39.2372 82.5722 39.1772 83.7122 39.8072 84.5222C38.9972 83.9522 37.8572 84.0422 37.1672 84.7922L34.4372 87.8221C33.7772 88.5721 33.7772 89.7121 34.4972 90.4021C35.2472 91.1221 36.4472 91.1221 37.1672 90.4021L37.1972 90.3721L40.0172 87.5521L40.0472 87.5221C40.0772 87.4921 40.1072 87.4921 40.1072 87.4621C40.7672 86.7421 40.7372 85.6622 40.1672 84.9422C40.9772 85.5422 42.0871 85.5422 42.8671 84.8522L42.8971 84.8222L45.8371 82.1222L45.8671 82.0922C45.8971 82.0622 45.9271 82.0322 45.9571 82.0022C46.5271 81.4022 46.6771 80.5922 46.4671 79.8722C47.2471 80.1722 48.1171 80.0822 48.8071 79.5122L48.8371 79.4822L51.867 76.9023L51.897 76.8723C51.927 76.8423 51.957 76.8123 51.987 76.7823C52.527 76.2723 52.767 75.5523 52.707 74.8323C53.457 75.0123 54.267 74.9223 54.897 74.4123L54.927 74.3823L58.077 71.9223L58.137 71.8923C58.167 71.8623 58.197 71.8323 58.227 71.8023C58.767 71.3223 59.037 70.6923 59.0969 70.0323C59.8169 70.1523 60.5669 70.0323 61.1969 69.5523L61.2569 69.5223L64.4969 67.2124L64.5569 67.1824C64.5869 67.1524 64.6469 67.1224 64.6769 67.0924C65.2169 66.6724 65.5169 66.0724 65.6369 65.4424C66.3269 65.5324 67.0769 65.4124 67.7068 64.9924L67.7668 64.9624L71.0968 62.7724L71.1568 62.7424C71.2168 62.7124 71.2468 62.6824 71.2768 62.6524C71.8168 62.2324 72.1468 61.6624 72.3268 61.0624C73.0168 61.1524 73.7368 61.0624 74.3668 60.6724L74.4268 60.6424L77.8167 58.6025L77.9967 58.6325C78.0567 58.6025 78.0867 58.5725 78.1467 58.5425C78.6867 58.1825 79.0467 57.6425 79.2867 57.0725C79.9767 57.1625 80.6667 57.0725 81.3267 56.7425L81.3867 56.7125L84.8666 54.8225L84.9266 54.7925C84.9866 54.7625 85.0166 54.7325 85.0766 54.7025C85.6166 54.3725 85.9766 53.8925 86.2766 53.3525C86.9366 53.4125 87.6266 53.3825 88.2866 53.0525L88.3766 53.0225L91.9166 51.2826L92.0066 51.2526C92.0666 51.2226 92.1266 51.1926 92.1866 51.1626C92.7266 50.8626 93.1465 50.4126 93.4465 49.9026C94.1065 49.9626 94.7665 49.9326 95.3965 49.6626L95.4865 49.6326L99.0865 48.0726L99.1765 48.0426C99.2365 48.0126 99.2965 47.9826 99.3565 47.9526C99.8965 47.6826 100.316 47.2926 100.676 46.8726C101.306 46.9626 101.966 46.9026 102.596 46.6626L102.716 46.6326L106.376 45.2826L106.496 45.2526C106.556 45.2226 106.616 45.1926 106.706 45.1626C107.246 44.9226 107.696 44.6226 108.056 44.2326C108.656 44.3226 109.316 44.2926 109.946 44.1126L110.096 44.0826L113.816 42.9726L113.966 42.9426C114.026 42.9126 114.116 42.9127 114.176 42.8827C114.686 42.7027 115.136 42.4027 115.526 42.0727C116.126 42.1927 116.726 42.1927 117.356 42.0427L117.536 42.0127L121.286 41.2027L121.466 41.1727C121.556 41.1427 121.616 41.1427 121.706 41.1127C122.186 40.9627 122.636 40.7527 123.056 40.4827C123.596 40.6327 124.196 40.6627 124.796 40.6027L125.066 40.5727L128.816 40.1227L129.086 40.0927C129.176 40.0927 129.236 40.0627 129.326 40.0627C129.806 39.9727 130.226 39.8227 130.616 39.6127C131.126 39.7927 131.636 39.8827 132.206 39.8827H132.566H136.256H136.616C136.706 39.8827 136.796 39.8827 136.886 39.8827C137.306 39.8527 137.666 39.7627 138.056 39.6727C138.446 39.8527 138.866 40.0027 139.316 40.0927L139.856 40.1827L143.336 40.7527L143.846 40.8427C143.936 40.8727 144.026 40.8727 144.116 40.8727C146.996 41.0527 149.636 38.9527 149.966 36.0727C150.296 33.1628 148.196 30.5528 145.286 30.2228Z" fill="#091B33"/>
<path d="M35.3371 105.312C35.1571 104.982 34.7371 104.952 34.4071 105.252L32.3071 107.232C32.0371 107.502 31.9171 107.952 32.0671 108.252C32.2171 108.582 32.5771 108.612 32.8771 108.372L35.0071 106.542L35.0371 106.512L35.0671 106.482C35.4271 106.152 35.5171 105.642 35.3371 105.312Z" fill="#091B33"/>
<path d="M38.727 101.412L36.567 103.302C36.2371 103.602 36.0871 104.142 36.2371 104.532C36.4171 104.952 36.837 105.042 37.227 104.742H37.257L39.447 103.032L39.477 103.002L39.507 102.972C39.897 102.612 40.047 102.012 39.837 101.592C39.597 101.142 39.117 101.082 38.727 101.412Z" fill="#091B33"/>
<path d="M43.1071 97.842L40.8871 99.612C40.4671 99.942 40.2871 100.572 40.4671 101.052C40.6471 101.532 41.1571 101.682 41.6071 101.352H41.6371L43.8571 99.732L43.8871 99.702C43.9171 99.702 43.9171 99.672 43.9171 99.672C44.3971 99.282 44.5771 98.562 44.3671 98.052C44.1271 97.572 43.5871 97.452 43.1071 97.842Z" fill="#091B33"/>
<path d="M47.607 94.4522L45.357 96.1322C44.877 96.4922 44.607 97.2122 44.787 97.7822C44.967 98.3521 45.537 98.5621 46.077 98.2021L46.107 98.1722L48.387 96.6722H48.417C48.447 96.6722 48.447 96.6422 48.477 96.6422C49.017 96.2522 49.287 95.4422 49.047 94.8422C48.807 94.2422 48.147 94.0322 47.607 94.4522Z" fill="#091B33"/>
<path d="M124.856 75.4923L122.606 74.1723C122.216 73.9323 121.766 73.8723 121.316 73.8723C121.046 73.5423 120.686 73.2724 120.266 73.1524L117.866 72.4024C117.446 72.2824 116.996 72.2824 116.546 72.4024C116.246 72.1324 115.856 71.9224 115.436 71.8624L113.006 71.5024C112.556 71.4424 112.136 71.5324 111.686 71.7124C111.356 71.4724 110.966 71.3224 110.546 71.2924L108.056 71.2324C107.606 71.2324 107.156 71.3524 106.766 71.5924C106.436 71.3824 106.046 71.2624 105.596 71.2924L103.106 71.4424C102.656 71.4724 102.206 71.6524 101.816 71.9224C101.456 71.7124 101.066 71.6224 100.616 71.6824L98.1264 72.0424C97.6764 72.1024 97.2564 72.3724 96.8664 72.7024C96.5064 72.5224 96.1164 72.4024 95.6664 72.4924L93.1764 73.0024C92.6964 73.0924 92.3064 73.3924 91.9164 73.7523C91.5565 73.5723 91.1365 73.4823 90.6865 73.6023L88.2265 74.2623C87.7765 74.3823 87.3565 74.7123 86.9965 75.1023C86.6365 74.9223 86.2165 74.8323 85.7665 74.9823L83.3065 75.7923C82.8266 75.9423 82.4366 76.3023 82.1066 76.7223C81.7466 76.5423 81.3266 76.4823 80.8466 76.6323L78.3866 77.5623C77.9066 77.7423 77.5166 78.1023 77.2166 78.5823C76.8566 78.4023 76.4066 78.3423 75.9566 78.5523L73.5267 79.5723C73.0467 79.7823 72.6567 80.1723 72.3867 80.6523C72.0267 80.4423 71.5767 80.4423 71.1267 80.6523L68.7267 81.7923C68.2467 82.0323 67.8567 82.4822 67.6167 83.0222C67.2567 82.7822 66.7767 82.7522 66.2967 82.9922L63.8968 84.2522C63.4168 84.5222 63.0268 85.0322 62.8468 85.6322C62.4868 85.3322 62.0068 85.2722 61.5268 85.5722L59.1568 86.9222C58.6468 87.2222 58.2868 87.8222 58.1668 88.4222C57.8368 88.0622 57.2968 88.0022 56.8169 88.3322L54.4769 89.8022C53.8769 90.1622 53.5469 90.9721 53.6369 91.6921C53.3669 91.1221 52.7369 90.9421 52.1669 91.3321L49.8569 92.8921C49.2869 93.2821 48.9869 94.0921 49.1669 94.7221C49.3469 95.3821 49.9769 95.6521 50.5769 95.2921L50.6069 95.2621L52.8869 93.8821H52.9169C52.9469 93.8821 52.9469 93.8521 52.9769 93.8521C53.5169 93.4621 53.8169 92.7121 53.7269 92.0821C53.9669 92.6821 54.5669 92.9221 55.1669 92.5921H55.1969L57.5068 91.3021H57.5368C57.5668 91.3021 57.5668 91.2721 57.5968 91.2721C58.0768 90.9721 58.3768 90.4322 58.4668 89.8622C58.7968 90.2222 59.2768 90.3422 59.8168 90.1022H59.8468L62.1868 88.9322H62.2168C62.2468 88.9322 62.2768 88.9022 62.2768 88.9022C62.7268 88.6622 63.0268 88.1822 63.2068 87.6722C63.5368 87.9722 63.9868 88.0622 64.4968 87.8522H64.5268L66.8667 86.7722L66.8967 86.7422C66.9267 86.7422 66.9567 86.7122 66.9867 86.7122C67.4067 86.5022 67.7367 86.1122 67.9467 85.6622C68.2767 85.9022 68.7267 85.9622 69.2067 85.7822H69.2367L71.6067 84.8222L71.6367 84.7922C71.6667 84.7922 71.6967 84.7622 71.7267 84.7622C72.1467 84.5822 72.4767 84.2222 72.7167 83.8022C73.0467 84.0122 73.4667 84.1022 73.9467 83.9222H73.9767L76.3466 83.0822L76.3766 83.0522C76.4066 83.0522 76.4366 83.0222 76.4666 83.0222C76.8866 82.8422 77.2166 82.5122 77.4866 82.1222C77.8166 82.3322 78.2366 82.4222 78.6866 82.2722L78.7166 82.2422L81.0866 81.5223H81.1466C81.1766 81.5223 81.2066 81.4923 81.2366 81.4923C81.6266 81.3423 81.9566 81.0423 82.2566 80.6823C82.5866 80.8923 82.9765 80.9823 83.4265 80.8623H83.4865L85.8565 80.2623H85.9165C85.9465 80.2623 85.9765 80.2323 86.0365 80.2323C86.4265 80.1123 86.7565 79.8423 87.0565 79.5423C87.3865 79.7223 87.7765 79.8423 88.1965 79.7523H88.2565L90.6265 79.2723H90.6865C90.7165 79.2723 90.7765 79.2423 90.8065 79.2423C91.1965 79.1523 91.5265 78.9123 91.8265 78.6123C92.1564 78.7923 92.5164 78.9123 92.9364 78.8523H92.9964L95.3364 78.5223H95.3964C95.4264 78.5223 95.4864 78.4923 95.5164 78.4923C95.8764 78.4323 96.2064 78.2223 96.5364 78.0123C96.8364 78.1923 97.1964 78.3123 97.6164 78.2823H97.7064L100.046 78.1023H100.136C100.196 78.1023 100.226 78.1023 100.256 78.1023C100.586 78.0423 100.946 77.9223 101.246 77.7123C101.546 77.9223 101.876 78.0423 102.266 78.0423H102.356H104.636H104.726C104.756 78.0423 104.816 78.0423 104.846 78.0423C105.176 78.0123 105.506 77.9223 105.806 77.7723C106.076 77.9823 106.406 78.1023 106.766 78.1323H106.886L109.106 78.3423H109.226C109.286 78.3423 109.316 78.3423 109.376 78.3423C109.676 78.3423 109.976 78.2823 110.276 78.1623C110.516 78.3723 110.816 78.5223 111.146 78.6123L111.296 78.6423L113.426 79.1223L113.576 79.1523C113.636 79.1523 113.666 79.1523 113.726 79.1823C113.996 79.2123 114.266 79.1823 114.536 79.1523C114.746 79.3623 114.986 79.5723 115.286 79.6923L115.466 79.7823L117.416 80.5623L117.596 80.6523C117.656 80.6823 117.686 80.6823 117.746 80.7123C117.956 80.7723 118.196 80.8023 118.436 80.8023C118.586 81.0123 118.766 81.2223 118.976 81.3723L119.246 81.5523L120.926 82.6922L121.166 82.8722C121.196 82.9022 121.256 82.9322 121.286 82.9622C122.726 83.8022 124.706 82.9022 125.696 80.9223C126.656 78.6423 126.296 76.3323 124.856 75.4923Z" fill="#091B33"/>
<path d="M53.4571 83.0823C53.2471 82.7523 52.8271 82.7223 52.5271 82.9623L50.4871 84.6723C50.2171 84.8823 50.1271 85.3022 50.3071 85.6022C50.4571 85.9022 50.8471 85.9622 51.1171 85.7522L53.1871 84.1623H53.2171C53.2171 84.1623 53.2471 84.1623 53.2471 84.1323C53.5771 83.8923 53.6671 83.4123 53.4571 83.0823Z" fill="#091B33"/>
<path d="M56.6971 79.7223L54.5972 81.3423C54.2672 81.6122 54.1472 82.0922 54.3272 82.4522C54.5072 82.8422 54.9571 82.9322 55.3171 82.6922H55.3471L57.4771 81.2223H57.5071L57.5371 81.1923C57.9271 80.8923 58.0471 80.3223 57.8071 79.9323C57.5671 79.5123 57.0571 79.4223 56.6971 79.7223Z" fill="#091B33"/>
<path d="M60.9571 76.6324L58.7971 78.1624C58.4071 78.4324 58.2271 79.0324 58.4371 79.4524C58.6471 79.9024 59.1571 80.0524 59.5771 79.7824H59.6071L61.767 78.4024H61.797C61.827 78.4024 61.827 78.3724 61.827 78.3724C62.277 78.0424 62.457 77.4124 62.217 76.9324C61.977 76.4224 61.407 76.3024 60.9571 76.6324Z" fill="#091B33"/>
<path d="M65.3069 73.7523L63.1169 75.1623C62.6369 75.4623 62.4269 76.1223 62.6069 76.6323C62.8169 77.1722 63.3869 77.3822 63.8969 77.0822H63.9269L66.1469 75.8223H66.1769C66.2069 75.8223 66.2069 75.7923 66.2369 75.7923C66.7768 75.4623 66.9868 74.7123 66.7468 74.1723C66.4768 73.5723 65.8469 73.3923 65.3069 73.7523Z" fill="#091B33"/>
<path d="M142.166 59.8925L139.856 58.5725C139.436 58.3325 138.986 58.2425 138.536 58.2425C138.236 57.9125 137.876 57.6725 137.456 57.5225L135.026 56.7125C134.606 56.5625 134.156 56.5625 133.706 56.6525C133.376 56.3825 132.986 56.1725 132.566 56.1125L130.106 55.6625C129.656 55.5725 129.206 55.6325 128.786 55.7825C128.456 55.5425 128.066 55.3925 127.616 55.3625L125.126 55.1825C124.676 55.1525 124.226 55.2725 123.836 55.4525C123.476 55.2425 123.086 55.1225 122.636 55.1225L120.146 55.1525C119.696 55.1525 119.276 55.3025 118.886 55.5425C118.526 55.3325 118.106 55.2425 117.656 55.2725L115.166 55.4825C114.716 55.5125 114.296 55.7525 113.907 56.0225C113.547 55.8425 113.127 55.7225 112.677 55.7825L110.217 56.1425C109.767 56.2025 109.347 56.4725 108.987 56.7725C108.627 56.5925 108.207 56.4725 107.757 56.5625L105.297 57.0425C104.847 57.1325 104.427 57.4025 104.097 57.7625C103.707 57.5825 103.287 57.4925 102.837 57.6125L100.407 58.2425C99.9567 58.3625 99.5367 58.6625 99.2367 59.0525C98.8467 58.8725 98.4267 58.7825 97.9767 58.9325L95.5467 59.6525C95.0967 59.8025 94.6767 60.1325 94.4067 60.5225C94.0167 60.3425 93.5967 60.2825 93.1467 60.4325L90.7468 61.2725C90.2968 61.4225 89.9068 61.7825 89.6368 62.2324C89.2768 62.0225 88.7968 61.9925 88.3468 62.1724L85.9768 63.1024C85.4968 63.2824 85.1368 63.7024 84.9268 64.1824C84.5368 63.9424 84.0868 63.8824 83.6069 64.0924L81.2669 65.1124C80.7869 65.3224 80.4269 65.8024 80.2769 66.3124C79.9169 66.0424 79.4069 65.9524 78.9269 66.1924L76.6169 67.3324C76.1069 67.5724 75.7769 68.1124 75.6869 68.6524C75.3269 68.3224 74.817 68.2324 74.307 68.5024L72.027 69.7324C71.457 70.0324 71.127 70.7523 71.247 71.4123C70.947 70.8723 70.317 70.6924 69.747 71.0223L67.497 72.3423C66.957 72.6723 66.657 73.3923 66.867 73.9923C67.077 74.6223 67.737 74.8623 68.307 74.5623H68.337L70.587 73.3923H70.617C70.647 73.3923 70.647 73.3923 70.677 73.3623C71.217 73.0323 71.487 72.3723 71.337 71.7723C71.607 72.3423 72.237 72.5823 72.807 72.3123H72.837L75.117 71.2323H75.1469C75.1769 71.2323 75.1769 71.2023 75.2069 71.2023C75.6569 70.9623 75.9569 70.4824 76.0169 69.9724C76.3469 70.3324 76.8569 70.4524 77.3669 70.2424H77.3969L79.7069 69.2824H79.7369C79.7669 69.2824 79.7969 69.2524 79.7969 69.2524C80.2169 69.0424 80.5169 68.6224 80.6669 68.1724C81.0269 68.4424 81.4769 68.5624 81.9569 68.3824H81.9869L84.2968 67.5124H84.3268C84.3568 67.5124 84.3868 67.4824 84.4168 67.4824C84.8368 67.3024 85.1368 66.9724 85.3468 66.5524C85.7068 66.7924 86.1568 66.8524 86.6068 66.7024H86.6368L88.9768 65.9224H89.0068C89.0368 65.9224 89.0668 65.8924 89.0968 65.8924C89.4868 65.7424 89.8168 65.4124 90.0268 65.0524C90.3868 65.2624 90.8068 65.3524 91.2568 65.2324H91.2868L93.6267 64.5724H93.6567C93.6867 64.5724 93.7167 64.5424 93.7467 64.5424C94.1367 64.3924 94.4667 64.1224 94.7067 63.7624C95.0667 63.9724 95.4567 64.0624 95.9067 63.9724H95.9367L98.2767 63.4024H98.3367C98.3667 63.4024 98.3967 63.3724 98.4267 63.3724C98.8167 63.2524 99.1467 62.9824 99.4167 62.6824C99.7767 62.8924 100.167 62.9824 100.617 62.9224H100.677L103.047 62.4724H103.107C103.137 62.4724 103.167 62.4424 103.197 62.4424C103.587 62.3524 103.887 62.1124 104.187 61.8424C104.517 62.0224 104.907 62.1424 105.357 62.0824H105.417L107.787 61.7525H107.847C107.877 61.7525 107.937 61.7525 107.967 61.7225C108.357 61.6325 108.687 61.4525 108.987 61.2125C109.317 61.3925 109.677 61.5125 110.097 61.4825H110.157L112.497 61.2725H112.557C112.587 61.2725 112.647 61.2725 112.677 61.2425C113.037 61.1825 113.367 61.0325 113.666 60.8525C113.996 61.0325 114.356 61.1525 114.746 61.1225H114.836L117.176 61.0625H117.266C117.326 61.0625 117.356 61.0625 117.386 61.0625C117.716 61.0325 118.046 60.9425 118.346 60.7625C118.646 60.9425 119.006 61.0925 119.396 61.0925H119.486L121.796 61.1825H121.886C121.916 61.1825 121.976 61.1825 122.006 61.1825C122.336 61.1825 122.636 61.0925 122.936 60.9725C123.236 61.1825 123.566 61.3025 123.926 61.3625L124.046 61.3925L126.296 61.6925L126.416 61.7225C126.476 61.7225 126.506 61.7225 126.566 61.7225C126.866 61.7525 127.166 61.6925 127.466 61.6025C127.736 61.8125 128.036 61.9625 128.366 62.0525L128.516 62.0824L130.676 62.5924L130.826 62.6224C130.886 62.6224 130.916 62.6524 130.976 62.6524C131.246 62.7124 131.516 62.6824 131.786 62.6524C132.026 62.8624 132.266 63.0424 132.566 63.1624L132.776 63.2524L134.756 64.0624L134.966 64.1524C135.026 64.1824 135.056 64.1824 135.116 64.2124C135.356 64.2724 135.566 64.3324 135.806 64.3324C135.986 64.5424 136.166 64.7224 136.376 64.8724L136.646 65.0524L138.386 66.1624L138.656 66.3424C138.686 66.3724 138.746 66.4024 138.806 66.4324C140.306 67.2724 142.256 66.5224 143.156 64.7824C144.116 62.8324 143.666 60.7325 142.166 59.8925Z" fill="#091B33"/>
</svg>
