<svg width="635" height="118" viewBox="0 0 635 118" fill="none" xmlns="http://www.w3.org/2000/svg">
<path d="M183.68 85L164.4 27.4H171.8L188.56 77.44L205.48 27.4H212.88L193.6 85H183.68ZM218.134 34.16V26.8H225.254V34.16H218.134ZM218.134 85V41.8H225.254V85H218.134ZM255.976 86.2C251.736 86.2 248.03 85.2667 244.856 83.4C241.71 81.5067 239.256 78.88 237.496 75.52C235.736 72.1333 234.856 68.1867 234.856 63.68C234.856 58.96 235.723 54.88 237.456 51.44C239.19 47.9733 241.603 45.3067 244.696 43.44C247.816 41.5467 251.47 40.6 255.656 40.6C260.003 40.6 263.696 41.6 266.736 43.6C269.803 45.6 272.096 48.4533 273.616 52.16C275.163 55.8667 275.83 60.28 275.616 65.4H268.416V62.84C268.336 57.5333 267.256 53.5733 265.176 50.96C263.096 48.32 260.003 47 255.896 47C251.496 47 248.15 48.4133 245.856 51.24C243.563 54.0667 242.416 58.12 242.416 63.4C242.416 68.4933 243.563 72.44 245.856 75.24C248.15 78.04 251.416 79.44 255.656 79.44C258.51 79.44 260.99 78.7867 263.096 77.48C265.203 76.1733 266.856 74.2933 268.056 71.84L274.896 74.2C273.216 78.0133 270.683 80.9733 267.296 83.08C263.936 85.16 260.163 86.2 255.976 86.2ZM240.016 65.4V59.68H271.936V65.4H240.016ZM292.159 85L278.959 41.76L286.039 41.8L295.679 73.4L305.399 41.8H311.679L321.359 73.4L331.039 41.8H338.079L324.879 85H318.959L308.519 52.16L298.079 85H292.159Z" fill="#021835"/>
<path d="M357.463 85L340.623 27.4H350.743L362.223 69L373.663 27.48L383.783 27.4L395.263 69L406.703 27.4H416.823L400.023 85H390.503L378.703 44.04L366.983 85H357.463ZM422.588 35.24V26.4H432.228V35.24H422.588ZM422.588 85V41.8H432.228V85H422.588ZM474.089 85V64.2C474.089 62.84 473.996 61.3333 473.809 59.68C473.623 58.0267 473.183 56.44 472.489 54.92C471.823 53.3733 470.809 52.1067 469.449 51.12C468.116 50.1333 466.303 49.64 464.009 49.64C462.783 49.64 461.569 49.84 460.369 50.24C459.169 50.64 458.076 51.3333 457.089 52.32C456.129 53.28 455.356 54.6133 454.769 56.32C454.183 58 453.889 60.16 453.889 62.8L448.169 60.36C448.169 56.68 448.876 53.3467 450.289 50.36C451.729 47.3733 453.836 45 456.609 43.24C459.383 41.4533 462.796 40.56 466.849 40.56C470.049 40.56 472.689 41.0933 474.769 42.16C476.849 43.2267 478.503 44.5867 479.729 46.24C480.956 47.8933 481.863 49.6533 482.449 51.52C483.036 53.3867 483.409 55.16 483.569 56.84C483.756 58.4933 483.849 59.84 483.849 60.88V85H474.089ZM444.129 85V41.8H452.729V55.2H453.889V85H444.129ZM512.448 105.4C510.048 105.4 507.741 105.027 505.528 104.28C503.341 103.533 501.368 102.453 499.608 101.04C497.848 99.6533 496.408 97.9733 495.288 96L504.168 91.6C504.994 93.1733 506.154 94.3333 507.648 95.08C509.168 95.8533 510.781 96.24 512.488 96.24C514.488 96.24 516.274 95.88 517.848 95.16C519.421 94.4667 520.634 93.4267 521.488 92.04C522.368 90.68 522.781 88.9733 522.728 86.92V74.64H523.928V41.8H532.368V87.08C532.368 88.1733 532.314 89.2133 532.208 90.2C532.128 91.2133 531.981 92.2 531.768 93.16C531.128 95.96 529.901 98.2533 528.088 100.04C526.274 101.853 524.021 103.2 521.328 104.08C518.661 104.96 515.701 105.4 512.448 105.4ZM511.608 86.2C507.634 86.2 504.168 85.2 501.208 83.2C498.248 81.2 495.954 78.48 494.328 75.04C492.701 71.6 491.888 67.72 491.888 63.4C491.888 59.0267 492.701 55.1333 494.328 51.72C495.981 48.28 498.314 45.5733 501.328 43.6C504.341 41.6 507.888 40.6 511.968 40.6C516.074 40.6 519.514 41.6 522.288 43.6C525.088 45.5733 527.208 48.28 528.648 51.72C530.088 55.16 530.808 59.0533 530.808 63.4C530.808 67.6933 530.088 71.5733 528.648 75.04C527.208 78.48 525.061 81.2 522.208 83.2C519.354 85.2 515.821 86.2 511.608 86.2ZM513.088 77.56C515.674 77.56 517.754 76.9733 519.328 75.8C520.928 74.6 522.088 72.9333 522.808 70.8C523.554 68.6667 523.928 66.2 523.928 63.4C523.928 60.5733 523.554 58.1067 522.808 56C522.088 53.8667 520.954 52.2133 519.408 51.04C517.861 49.84 515.861 49.24 513.408 49.24C510.821 49.24 508.688 49.88 507.008 51.16C505.328 52.4133 504.088 54.12 503.288 56.28C502.488 58.4133 502.088 60.7867 502.088 63.4C502.088 66.04 502.474 68.44 503.248 70.6C504.048 72.7333 505.261 74.4267 506.888 75.68C508.514 76.9333 510.581 77.56 513.088 77.56ZM560.264 86.2C554.931 86.2 550.598 85 547.264 82.6C543.931 80.2 541.904 76.8267 541.184 72.48L551.024 70.96C551.531 73.0933 552.651 74.7733 554.384 76C556.118 77.2267 558.304 77.84 560.944 77.84C563.264 77.84 565.051 77.3867 566.304 76.48C567.584 75.5467 568.224 74.28 568.224 72.68C568.224 71.6933 567.984 70.9067 567.504 70.32C567.051 69.7067 566.038 69.12 564.464 68.56C562.891 68 560.478 67.2933 557.224 66.44C553.598 65.48 550.718 64.4533 548.584 63.36C546.451 62.24 544.918 60.92 543.984 59.4C543.051 57.88 542.584 56.04 542.584 53.88C542.584 51.1867 543.291 48.84 544.704 46.84C546.118 44.84 548.091 43.3067 550.624 42.24C553.158 41.1467 556.144 40.6 559.584 40.6C562.944 40.6 565.918 41.12 568.504 42.16C571.118 43.2 573.224 44.68 574.824 46.6C576.424 48.52 577.411 50.7733 577.784 53.36L567.944 55.12C567.704 53.28 566.864 51.8267 565.424 50.76C564.011 49.6933 562.118 49.0933 559.744 48.96C557.478 48.8267 555.651 49.1733 554.264 50C552.878 50.8 552.184 51.9333 552.184 53.4C552.184 54.2267 552.464 54.9333 553.024 55.52C553.584 56.1067 554.704 56.6933 556.384 57.28C558.091 57.8667 560.624 58.5867 563.984 59.44C567.424 60.32 570.171 61.3333 572.224 62.48C574.304 63.6 575.798 64.9467 576.704 66.52C577.638 68.0933 578.104 70 578.104 72.24C578.104 76.5867 576.518 80 573.344 82.48C570.198 84.96 565.838 86.2 560.264 86.2Z" fill="#06536B"/>
<path d="M0.0275837 44.8727C0.447579 42.1727 1.43757 39.5927 2.72755 37.1928C4.01754 34.7928 5.66752 32.5428 7.6175 30.5328C8.60748 29.5428 9.65747 28.5829 10.8275 27.7129C11.9974 26.8129 13.2874 26.0029 14.8174 25.2829L15.0874 25.1629L15.5074 25.0129C15.7774 24.9229 16.0774 24.8329 16.3774 24.7429C16.9474 24.5329 17.5174 24.5029 18.0574 24.4129C18.6574 24.3229 19.1974 24.3529 19.7074 24.3529C20.2473 24.3529 20.7873 24.3829 21.2973 24.5029C23.3973 24.8329 25.2873 25.7929 26.8773 26.9629C27.2673 27.2629 27.6273 27.5929 27.9873 27.8929C28.3473 28.2529 28.6473 28.6129 28.9472 28.9728C29.6072 29.6628 30.0572 30.4128 30.5072 31.1628C31.0172 31.9128 31.2872 32.6928 31.6472 33.4428C32.0072 34.2228 32.1872 34.9728 32.4272 35.7228C33.2672 38.7527 33.5072 41.6627 33.4172 44.4227L33.3272 46.4926L33.0872 48.5026C32.9972 49.1626 32.9372 49.8526 32.8472 50.5126L32.4872 52.4626L32.1272 54.4126L31.7372 56.2125C31.4672 57.4125 31.1972 58.6425 30.8972 59.8425C29.7872 64.6724 28.4373 69.4124 27.1473 74.1523C25.8573 78.8923 24.4473 83.6022 23.0373 88.2822C20.1873 97.6721 17.1574 106.972 13.8274 116.242L9.02748 114.742C10.1375 111.292 11.4275 107.932 12.8374 104.632C14.3074 101.362 15.8374 98.092 17.5474 94.9721C20.9073 88.6422 24.6573 82.5222 28.7373 76.6723C36.9272 64.9424 46.347 54.0226 56.8469 44.1527C67.3468 34.3128 78.9867 25.5229 91.5865 18.173C104.186 10.8231 117.836 5.12312 132.116 1.25317C136.076 0.203179 140.126 2.51315 141.206 6.44311C142.286 10.3731 139.946 14.423 135.986 15.503C135.866 15.533 135.716 15.563 135.596 15.593L135.506 15.623C122.426 18.383 109.586 22.8229 97.4965 29.0028C85.4066 35.1528 73.9767 42.7427 63.4468 51.5326C52.947 60.3225 43.2871 70.2524 34.7672 81.0822C30.5072 86.4822 26.5473 92.1521 22.9773 98.0321C21.1473 100.942 19.5274 103.972 17.9374 107.032C16.4074 110.062 14.9974 113.182 13.7674 116.332C13.2574 117.622 11.8174 118.282 10.4975 117.772C9.32748 117.322 8.66748 116.092 8.93748 114.892L8.96748 114.832C11.0075 105.292 13.1674 95.7521 15.3274 86.2422L18.5374 71.9924C19.5874 67.2524 20.6073 62.5125 21.5973 57.7725C22.5873 52.9726 23.4573 48.5026 23.4573 44.2727C23.5173 43.1927 23.3973 42.2027 23.3373 41.2127C23.3073 40.7027 23.1873 40.2827 23.0973 39.8027L22.9773 39.1127L22.7973 38.4827C22.3173 36.7728 21.5073 35.5428 20.7573 34.9728C20.0074 34.3728 19.2274 34.4328 18.9874 34.5528C18.2974 34.8228 17.4874 35.3028 16.6774 35.8428C15.8674 36.3828 15.0274 36.9828 14.1874 37.6427C10.8275 40.2527 7.79749 43.4027 4.64753 46.9126L4.55753 47.0026C3.56754 48.0526 1.91756 48.1726 0.867574 47.2126C0.177582 46.6126 -0.0924149 45.7127 0.0275837 44.8727Z" fill="#0C556D"/>
<path d="M18.9574 111.172C18.4474 110.842 17.7274 111.022 17.4274 111.532L15.2974 114.982C14.9974 115.432 15.1174 116.032 15.5674 116.332C16.0174 116.662 16.6474 116.542 16.9774 116.092V116.062L19.2573 112.792L19.2873 112.762C19.2873 112.732 19.3173 112.732 19.3173 112.702C19.6473 112.192 19.4673 111.502 18.9574 111.172Z" fill="#091B33"/>
<path d="M21.9273 104.812L19.6173 108.172C19.2573 108.712 19.3773 109.432 19.8873 109.822C20.4273 110.242 21.2073 110.122 21.5973 109.612L21.6273 109.582L24.0573 106.432L24.0873 106.402C24.0873 106.372 24.1173 106.372 24.1173 106.342C24.5372 105.742 24.3872 104.902 23.7573 104.482C23.1873 104.032 22.3473 104.182 21.9273 104.812Z" fill="#091B33"/>
<path d="M26.7573 98.2719L24.2974 101.512C23.8474 102.112 23.9374 102.982 24.5374 103.492C25.1374 104.002 26.0673 103.942 26.5773 103.312L26.6073 103.282L29.1873 100.252L29.2173 100.222C29.2473 100.192 29.2473 100.192 29.2773 100.162C29.7873 99.4719 29.6673 98.482 28.9773 97.972C28.2573 97.462 27.2673 97.612 26.7573 98.2719Z" fill="#091B33"/>
<path d="M31.8572 91.9721L29.2772 95.092C28.7372 95.752 28.7972 96.772 29.4272 97.372C30.1172 98.002 31.1672 97.942 31.7972 97.282L31.8272 97.252L34.5271 94.312L34.5571 94.282C34.5871 94.252 34.5871 94.222 34.6171 94.222C35.2471 93.4721 35.1271 92.3621 34.3771 91.7321C33.6271 91.1021 32.4872 91.2221 31.8572 91.9721Z" fill="#091B33"/>
<path d="M145.286 31.2228L140.756 30.7128C139.946 30.6228 139.196 30.7428 138.476 30.9828C137.816 30.7128 137.066 30.5628 136.286 30.5928L131.906 30.8328C131.126 30.8628 130.406 31.1028 129.776 31.4628C129.086 31.2828 128.366 31.1928 127.616 31.3428L123.416 32.0928C122.666 32.2428 122.006 32.5428 121.406 32.9927C120.716 32.8427 119.996 32.8427 119.276 33.0527L115.196 34.1927C114.476 34.4027 113.846 34.7927 113.306 35.2727C112.616 35.1827 111.896 35.2127 111.176 35.4827L107.246 36.8927C106.526 37.1327 105.926 37.5827 105.476 38.1227C104.786 38.0627 104.066 38.1227 103.376 38.4227L99.5664 40.0727C98.8764 40.3727 98.3365 40.9127 97.9165 41.4826C97.1965 41.4226 96.4765 41.4826 95.8165 41.8126L92.1265 43.6426C91.4365 44.0026 90.9565 44.5426 90.5666 45.1726C89.8466 45.1126 89.1266 45.2026 88.4666 45.5626L84.8666 47.5726C84.2066 47.9626 83.7266 48.5326 83.4266 49.1926C82.7066 49.1326 81.9867 49.2526 81.3267 49.6426L77.8467 51.8025C77.1867 52.2225 76.7667 52.8525 76.4967 53.5125C75.7767 53.4525 75.0567 53.6025 74.3967 54.0225L71.0068 56.3325C70.3468 56.7825 69.9568 57.4425 69.7468 58.1325C69.0268 58.0725 68.2768 58.2525 67.6768 58.7024L64.3769 61.1324C63.7469 61.6124 63.3569 62.3024 63.2069 63.0224C62.4869 62.9624 61.7369 63.1424 61.1369 63.6524L57.9569 66.2024C57.3269 66.7124 56.9969 67.4623 56.9669 68.2423C56.2169 68.1223 55.437 68.3023 54.807 68.8423L51.717 71.5123C51.087 72.0823 50.817 72.8923 50.907 73.7023C50.127 73.5223 49.317 73.6723 48.687 74.2723L45.7171 77.0622C45.0871 77.6622 44.8771 78.5622 45.0871 79.3722C44.3071 79.1022 43.4071 79.2822 42.8071 79.9122L39.9571 82.8222C39.2371 83.5722 39.1771 84.7121 39.8071 85.5221C38.9972 84.9521 37.8572 85.0421 37.1672 85.7921L34.4372 88.8221C33.7772 89.5721 33.7772 90.7121 34.4972 91.4021C35.2472 92.1221 36.4472 92.1221 37.1672 91.4021L37.1972 91.3721L40.0171 88.5521L40.0471 88.5221C40.0771 88.4921 40.1071 88.4921 40.1071 88.4621C40.7671 87.7421 40.7371 86.6621 40.1671 85.9421C40.9771 86.5421 42.0871 86.5421 42.8671 85.8521L42.8971 85.8221L45.8371 83.1222L45.8671 83.0922C45.8971 83.0622 45.9271 83.0322 45.9571 83.0022C46.5271 82.4022 46.6771 81.5922 46.4671 80.8722C47.2471 81.1722 48.117 81.0822 48.807 80.5122L48.837 80.4822L51.867 77.9022L51.897 77.8722C51.927 77.8422 51.957 77.8122 51.987 77.7822C52.527 77.2722 52.767 76.5522 52.707 75.8322C53.457 76.0122 54.267 75.9222 54.897 75.4123L54.927 75.3823L58.0769 72.9223L58.1369 72.8923C58.1669 72.8623 58.1969 72.8323 58.2269 72.8023C58.7669 72.3223 59.0369 71.6923 59.0969 71.0323C59.8169 71.1523 60.5669 71.0323 61.1969 70.5523L61.2569 70.5223L64.4969 68.2123L64.5569 68.1823C64.5869 68.1523 64.6469 68.1223 64.6769 68.0923C65.2168 67.6723 65.5168 67.0723 65.6368 66.4424C66.3268 66.5324 67.0768 66.4124 67.7068 65.9924L67.7668 65.9624L71.0968 63.7724L71.1568 63.7424C71.2168 63.7124 71.2468 63.6824 71.2768 63.6524C71.8168 63.2324 72.1468 62.6624 72.3268 62.0624C73.0168 62.1524 73.7368 62.0624 74.3667 61.6724L74.4267 61.6424L77.8167 59.6024L77.9967 59.6324C78.0567 59.6024 78.0867 59.5724 78.1467 59.5424C78.6867 59.1824 79.0467 58.6425 79.2867 58.0725C79.9767 58.1625 80.6667 58.0725 81.3267 57.7425L81.3867 57.7125L84.8666 55.8225L84.9266 55.7925C84.9866 55.7625 85.0166 55.7325 85.0766 55.7025C85.6166 55.3725 85.9766 54.8925 86.2766 54.3525C86.9366 54.4125 87.6266 54.3825 88.2866 54.0525L88.3766 54.0225L91.9165 52.2825L92.0065 52.2525C92.0665 52.2225 92.1265 52.1925 92.1865 52.1625C92.7265 51.8625 93.1465 51.4125 93.4465 50.9025C94.1065 50.9625 94.7665 50.9325 95.3965 50.6625L95.4865 50.6325L99.0864 49.0726L99.1765 49.0426C99.2365 49.0126 99.2964 48.9826 99.3564 48.9526C99.8964 48.6826 100.316 48.2926 100.676 47.8726C101.306 47.9626 101.966 47.9026 102.596 47.6626L102.716 47.6326L106.376 46.2826L106.496 46.2526C106.556 46.2226 106.616 46.1926 106.706 46.1626C107.246 45.9226 107.696 45.6226 108.056 45.2326C108.656 45.3226 109.316 45.2926 109.946 45.1126L110.096 45.0826L113.816 43.9726L113.966 43.9426C114.026 43.9126 114.116 43.9126 114.176 43.8826C114.686 43.7026 115.136 43.4026 115.526 43.0726C116.126 43.1926 116.726 43.1926 117.356 43.0426L117.536 43.0126L121.286 42.2026L121.466 42.1726C121.556 42.1426 121.616 42.1426 121.706 42.1126C122.186 41.9626 122.636 41.7526 123.056 41.4826C123.596 41.6326 124.196 41.6626 124.796 41.6026L125.066 41.5726L128.816 41.1227L129.086 41.0927C129.176 41.0927 129.236 41.0627 129.326 41.0627C129.806 40.9727 130.226 40.8227 130.616 40.6127C131.126 40.7927 131.636 40.8827 132.206 40.8827H132.566H136.256H136.616C136.706 40.8827 136.796 40.8827 136.886 40.8827C137.306 40.8527 137.666 40.7627 138.056 40.6727C138.446 40.8527 138.866 41.0027 139.316 41.0927L139.856 41.1827L143.336 41.7526L143.846 41.8426C143.936 41.8726 144.026 41.8726 144.116 41.8726C146.996 42.0526 149.636 39.9527 149.966 37.0727C150.296 34.1627 148.196 31.5528 145.286 31.2228Z" fill="#091B33"/>
<path d="M35.3371 106.312C35.1571 105.982 34.7371 105.952 34.4071 106.252L32.3072 108.232C32.0372 108.502 31.9172 108.952 32.0672 109.252C32.2172 109.582 32.5772 109.612 32.8772 109.372L35.0071 107.542L35.0371 107.512L35.0671 107.482C35.4271 107.152 35.5171 106.642 35.3371 106.312Z" fill="#091B33"/>
<path d="M38.7271 102.412L36.5671 104.302C36.2371 104.602 36.0871 105.142 36.2371 105.532C36.4171 105.952 36.8371 106.042 37.2271 105.742H37.2571L39.4471 104.032L39.4771 104.002L39.5071 103.972C39.8971 103.612 40.0471 103.012 39.8371 102.592C39.5971 102.142 39.1171 102.082 38.7271 102.412Z" fill="#091B33"/>
<path d="M43.1071 98.8421L40.8871 100.612C40.4671 100.942 40.2871 101.572 40.4671 102.052C40.6471 102.532 41.1571 102.682 41.6071 102.352H41.6371L43.857 100.732L43.887 100.702C43.917 100.702 43.917 100.672 43.917 100.672C44.397 100.282 44.577 99.5621 44.367 99.0521C44.127 98.5721 43.587 98.4521 43.1071 98.8421Z" fill="#091B33"/>
<path d="M47.607 95.4523L45.357 97.1323C44.877 97.4923 44.6071 98.2123 44.787 98.7822C44.967 99.3522 45.537 99.5622 46.077 99.2022L46.107 99.1722L48.387 97.6723H48.417C48.447 97.6723 48.447 97.6423 48.477 97.6423C49.017 97.2523 49.287 96.4423 49.047 95.8423C48.807 95.2423 48.147 95.0323 47.607 95.4523Z" fill="#091B33"/>
<path d="M124.856 76.4924L122.606 75.1724C122.216 74.9324 121.766 74.8724 121.316 74.8724C121.046 74.5424 120.686 74.2724 120.266 74.1524L117.866 73.4024C117.446 73.2824 116.996 73.2824 116.546 73.4024C116.246 73.1324 115.856 72.9224 115.436 72.8624L113.006 72.5024C112.556 72.4424 112.136 72.5324 111.686 72.7124C111.356 72.4724 110.966 72.3224 110.546 72.2924L108.056 72.2324C107.606 72.2324 107.156 72.3524 106.766 72.5924C106.436 72.3824 106.046 72.2624 105.596 72.2924L103.106 72.4424C102.656 72.4724 102.206 72.6524 101.816 72.9224C101.456 72.7124 101.066 72.6224 100.616 72.6824L98.1264 73.0424C97.6764 73.1024 97.2564 73.3724 96.8664 73.7024C96.5064 73.5224 96.1164 73.4024 95.6664 73.4924L93.1765 74.0024C92.6965 74.0924 92.3065 74.3924 91.9165 74.7524C91.5565 74.5724 91.1365 74.4824 90.6865 74.6024L88.2265 75.2624C87.7765 75.3824 87.3565 75.7124 86.9965 76.1024C86.6365 75.9224 86.2165 75.8324 85.7666 75.9824L83.3066 76.7924C82.8266 76.9424 82.4366 77.3024 82.1066 77.7224C81.7466 77.5424 81.3266 77.4824 80.8466 77.6324L78.3866 78.5624C77.9066 78.7423 77.5166 79.1023 77.2166 79.5823C76.8567 79.4023 76.4067 79.3423 75.9567 79.5523L73.5267 80.5723C73.0467 80.7823 72.6567 81.1723 72.3867 81.6523C72.0267 81.4423 71.5767 81.4423 71.1267 81.6523L68.7267 82.7923C68.2468 83.0323 67.8568 83.4823 67.6168 84.0223C67.2568 83.7823 66.7768 83.7523 66.2968 83.9923L63.8968 85.2523C63.4168 85.5223 63.0268 86.0323 62.8468 86.6323C62.4868 86.3323 62.0068 86.2723 61.5268 86.5723L59.1569 87.9222C58.6469 88.2222 58.2869 88.8222 58.1669 89.4222C57.8369 89.0622 57.2969 89.0022 56.8169 89.3322L54.4769 90.8022C53.8769 91.1622 53.5469 91.9722 53.6369 92.6922C53.3669 92.1222 52.7369 91.9422 52.1669 92.3322L49.857 93.8922C49.287 94.2822 48.987 95.0922 49.167 95.7221C49.347 96.3821 49.977 96.6521 50.577 96.2921L50.607 96.2621L52.8869 94.8822H52.9169C52.9469 94.8822 52.9469 94.8522 52.9769 94.8522C53.5169 94.4622 53.8169 93.7122 53.7269 93.0822C53.9669 93.6822 54.5669 93.9222 55.1669 93.5922H55.1969L57.5069 92.3022H57.5369C57.5669 92.3022 57.5669 92.2722 57.5969 92.2722C58.0769 91.9722 58.3769 91.4322 58.4669 90.8622C58.7969 91.2222 59.2769 91.3422 59.8169 91.1022H59.8469L62.1868 89.9322H62.2168C62.2468 89.9322 62.2768 89.9022 62.2768 89.9022C62.7268 89.6622 63.0268 89.1822 63.2068 88.6722C63.5368 88.9722 63.9868 89.0622 64.4968 88.8522H64.5268L66.8668 87.7722L66.8968 87.7422C66.9268 87.7422 66.9568 87.7122 66.9868 87.7122C67.4068 87.5022 67.7368 87.1122 67.9468 86.6623C68.2768 86.9023 68.7267 86.9623 69.2067 86.7823H69.2367L71.6067 85.8223L71.6367 85.7923C71.6667 85.7923 71.6967 85.7623 71.7267 85.7623C72.1467 85.5823 72.4767 85.2223 72.7167 84.8023C73.0467 85.0123 73.4667 85.1023 73.9467 84.9223H73.9767L76.3467 84.0823L76.3767 84.0523C76.4067 84.0523 76.4367 84.0223 76.4667 84.0223C76.8867 83.8423 77.2166 83.5123 77.4866 83.1223C77.8166 83.3323 78.2366 83.4223 78.6866 83.2723L78.7166 83.2423L81.0866 82.5223H81.1466C81.1766 82.5223 81.2066 82.4923 81.2366 82.4923C81.6266 82.3423 81.9566 82.0423 82.2566 81.6823C82.5866 81.8923 82.9766 81.9823 83.4266 81.8623H83.4866L85.8566 81.2623H85.9165C85.9465 81.2623 85.9765 81.2323 86.0365 81.2323C86.4265 81.1123 86.7565 80.8423 87.0565 80.5423C87.3865 80.7223 87.7765 80.8423 88.1965 80.7523H88.2565L90.6265 80.2723H90.6865C90.7165 80.2723 90.7765 80.2423 90.8065 80.2423C91.1965 80.1523 91.5265 79.9123 91.8265 79.6123C92.1565 79.7923 92.5165 79.9123 92.9365 79.8523H92.9965L95.3364 79.5223H95.3964C95.4264 79.5223 95.4864 79.4923 95.5164 79.4923C95.8764 79.4323 96.2064 79.2223 96.5364 79.0123C96.8364 79.1923 97.1964 79.3123 97.6164 79.2823H97.7064L100.046 79.1023H100.136C100.196 79.1023 100.226 79.1023 100.256 79.1023C100.586 79.0423 100.946 78.9223 101.246 78.7123C101.546 78.9223 101.876 79.0423 102.266 79.0423H102.356H104.636H104.726C104.756 79.0423 104.816 79.0423 104.846 79.0423C105.176 79.0123 105.506 78.9223 105.806 78.7723C106.076 78.9823 106.406 79.1023 106.766 79.1323H106.886L109.106 79.3423H109.226C109.286 79.3423 109.316 79.3423 109.376 79.3423C109.676 79.3423 109.976 79.2823 110.276 79.1623C110.516 79.3723 110.816 79.5223 111.146 79.6123L111.296 79.6423L113.426 80.1223L113.576 80.1523C113.636 80.1523 113.666 80.1523 113.726 80.1823C113.996 80.2123 114.266 80.1823 114.536 80.1523C114.746 80.3623 114.986 80.5723 115.286 80.6923L115.466 80.7823L117.416 81.5623L117.596 81.6523C117.656 81.6823 117.686 81.6823 117.746 81.7123C117.956 81.7723 118.196 81.8023 118.436 81.8023C118.586 82.0123 118.766 82.2223 118.976 82.3723L119.246 82.5523L120.926 83.6923L121.166 83.8723C121.196 83.9023 121.256 83.9323 121.286 83.9623C122.726 84.8023 124.706 83.9023 125.696 81.9223C126.656 79.6423 126.296 77.3324 124.856 76.4924Z" fill="#091B33"/>
<path d="M53.457 84.0823C53.247 83.7523 52.827 83.7223 52.527 83.9623L50.487 85.6722C50.217 85.8822 50.127 86.3022 50.307 86.6022C50.457 86.9022 50.847 86.9622 51.117 86.7522L53.187 85.1623H53.217C53.217 85.1623 53.247 85.1623 53.247 85.1323C53.577 84.8923 53.667 84.4123 53.457 84.0823Z" fill="#091B33"/>
<path d="M56.6971 80.7223L54.5971 82.3423C54.2671 82.6123 54.1471 83.0923 54.3271 83.4523C54.5071 83.8423 54.9571 83.9323 55.3171 83.6923H55.3471L57.4771 82.2223H57.5071L57.5371 82.1923C57.9271 81.8923 58.0471 81.3223 57.8071 80.9323C57.5671 80.5123 57.0571 80.4223 56.6971 80.7223Z" fill="#091B33"/>
<path d="M60.9571 77.6324L58.7971 79.1624C58.4071 79.4324 58.2271 80.0324 58.4371 80.4524C58.6471 80.9024 59.1571 81.0524 59.5771 80.7824H59.6071L61.767 79.4024H61.797C61.827 79.4024 61.827 79.3724 61.827 79.3724C62.277 79.0424 62.457 78.4124 62.217 77.9324C61.977 77.4224 61.407 77.3024 60.9571 77.6324Z" fill="#091B33"/>
<path d="M65.3068 74.7523L63.1168 76.1623C62.6368 76.4623 62.4268 77.1223 62.6068 77.6323C62.8168 78.1723 63.3868 78.3823 63.8968 78.0823H63.9268L66.1468 76.8223H66.1768C66.2068 76.8223 66.2068 76.7923 66.2368 76.7923C66.7768 76.4623 66.9868 75.7123 66.7468 75.1723C66.4768 74.5723 65.8468 74.3923 65.3068 74.7523Z" fill="#091B33"/>
<path d="M142.166 60.8925L139.856 59.5725C139.436 59.3325 138.986 59.2425 138.536 59.2425C138.236 58.9125 137.876 58.6725 137.456 58.5225L135.026 57.7125C134.606 57.5625 134.156 57.5625 133.706 57.6525C133.376 57.3825 132.986 57.1725 132.566 57.1125L130.106 56.6626C129.656 56.5726 129.206 56.6326 128.786 56.7826C128.456 56.5426 128.066 56.3926 127.616 56.3626L125.126 56.1826C124.676 56.1526 124.226 56.2726 123.836 56.4526C123.476 56.2426 123.086 56.1226 122.636 56.1226L120.146 56.1526C119.696 56.1526 119.276 56.3026 118.886 56.5426C118.526 56.3326 118.106 56.2426 117.656 56.2726L115.166 56.4826C114.716 56.5126 114.296 56.7526 113.906 57.0226C113.546 56.8426 113.126 56.7226 112.676 56.7826L110.216 57.1425C109.766 57.2025 109.346 57.4725 108.986 57.7725C108.627 57.5925 108.206 57.4725 107.757 57.5625L105.297 58.0425C104.847 58.1325 104.427 58.4025 104.097 58.7625C103.707 58.5825 103.287 58.4925 102.837 58.6125L100.407 59.2425C99.9566 59.3625 99.5366 59.6625 99.2366 60.0525C98.8466 59.8725 98.4266 59.7825 97.9766 59.9325L95.5467 60.6525C95.0967 60.8025 94.6767 61.1325 94.4067 61.5225C94.0167 61.3425 93.5967 61.2825 93.1467 61.4325L90.7467 62.2725C90.2967 62.4225 89.9067 62.7825 89.6367 63.2325C89.2767 63.0225 88.7967 62.9925 88.3467 63.1725L85.9768 64.1025C85.4968 64.2825 85.1368 64.7025 84.9268 65.1825C84.5368 64.9425 84.0868 64.8825 83.6068 65.0925L81.2668 66.1124C80.7868 66.3224 80.4268 66.8024 80.2768 67.3124C79.9168 67.0424 79.4068 66.9524 78.9268 67.1924L76.6169 68.3324C76.1069 68.5724 75.7769 69.1124 75.6869 69.6524C75.3269 69.3224 74.8169 69.2324 74.3069 69.5024L72.0269 70.7324C71.4569 71.0324 71.1269 71.7524 71.2469 72.4124C70.9469 71.8724 70.3169 71.6924 69.7469 72.0224L67.497 73.3424C66.957 73.6724 66.657 74.3924 66.867 74.9923C67.077 75.6223 67.737 75.8623 68.307 75.5623H68.337L70.5869 74.3923H70.6169C70.6469 74.3923 70.6469 74.3923 70.6769 74.3623C71.2169 74.0324 71.4869 73.3724 71.3369 72.7724C71.6069 73.3424 72.2369 73.5824 72.8069 73.3124H72.8369L75.1169 72.2324H75.1469C75.1769 72.2324 75.1769 72.2024 75.2069 72.2024C75.6569 71.9624 75.9569 71.4824 76.0169 70.9724C76.3469 71.3324 76.8569 71.4524 77.3669 71.2424H77.3969L79.7068 70.2824H79.7368C79.7668 70.2824 79.7968 70.2524 79.7968 70.2524C80.2168 70.0424 80.5168 69.6224 80.6668 69.1724C81.0268 69.4424 81.4768 69.5624 81.9568 69.3824H81.9868L84.2968 68.5124H84.3268C84.3568 68.5124 84.3868 68.4824 84.4168 68.4824C84.8368 68.3024 85.1368 67.9724 85.3468 67.5524C85.7068 67.7924 86.1568 67.8524 86.6068 67.7024H86.6368L88.9767 66.9224H89.0067C89.0367 66.9224 89.0667 66.8924 89.0967 66.8924C89.4867 66.7424 89.8167 66.4124 90.0267 66.0524C90.3867 66.2624 90.8067 66.3524 91.2567 66.2324H91.2867L93.6267 65.5725H93.6567C93.6867 65.5725 93.7167 65.5425 93.7467 65.5425C94.1367 65.3925 94.4667 65.1225 94.7067 64.7625C95.0667 64.9725 95.4566 65.0625 95.9066 64.9725H95.9366L98.2766 64.4025H98.3366C98.3666 64.4025 98.3966 64.3725 98.4266 64.3725C98.8166 64.2525 99.1466 63.9825 99.4166 63.6825C99.7766 63.8925 100.167 63.9825 100.617 63.9225H100.677L103.047 63.4725H103.107C103.137 63.4725 103.167 63.4425 103.197 63.4425C103.587 63.3525 103.887 63.1125 104.187 62.8425C104.517 63.0225 104.907 63.1425 105.357 63.0825H105.417L107.787 62.7525H107.847C107.877 62.7525 107.937 62.7525 107.967 62.7225C108.357 62.6325 108.687 62.4525 108.986 62.2125C109.316 62.3925 109.676 62.5125 110.096 62.4825H110.156L112.496 62.2725H112.556C112.586 62.2725 112.646 62.2725 112.676 62.2425C113.036 62.1825 113.366 62.0325 113.666 61.8525C113.996 62.0325 114.356 62.1525 114.746 62.1225H114.836L117.176 62.0625H117.266C117.326 62.0625 117.356 62.0625 117.386 62.0625C117.716 62.0325 118.046 61.9425 118.346 61.7625C118.646 61.9425 119.006 62.0925 119.396 62.0925H119.486L121.796 62.1825H121.886C121.916 62.1825 121.976 62.1825 122.006 62.1825C122.336 62.1825 122.636 62.0925 122.936 61.9725C123.236 62.1825 123.566 62.3025 123.926 62.3625L124.046 62.3925L126.296 62.6925L126.416 62.7225C126.476 62.7225 126.506 62.7225 126.566 62.7225C126.866 62.7525 127.166 62.6925 127.466 62.6025C127.736 62.8125 128.036 62.9625 128.366 63.0525L128.516 63.0825L130.676 63.5925L130.826 63.6225C130.886 63.6225 130.916 63.6525 130.976 63.6525C131.246 63.7125 131.516 63.6825 131.786 63.6525C132.026 63.8625 132.266 64.0425 132.566 64.1625L132.776 64.2525L134.756 65.0625L134.966 65.1525C135.026 65.1825 135.056 65.1825 135.116 65.2125C135.356 65.2725 135.566 65.3325 135.806 65.3325C135.986 65.5424 136.166 65.7224 136.376 65.8724L136.646 66.0524L138.386 67.1624L138.656 67.3424C138.686 67.3724 138.746 67.4024 138.806 67.4324C140.306 68.2724 142.256 67.5224 143.156 65.7825C144.116 63.8325 143.666 61.7325 142.166 60.8925Z" fill="#091B33"/>
</svg>
