<svg width="276" height="54" viewBox="0 0 276 54" fill="none" xmlns="http://www.w3.org/2000/svg">
<path d="M67.84 43L58.2 14.2H61.9L70.28 39.22L78.74 14.2H82.44L72.8 43H67.84ZM85.0672 17.58V13.9H88.6272V17.58H85.0672ZM85.0672 43V21.4H88.6272V43H85.0672ZM103.988 43.6C101.868 43.6 100.015 43.1333 98.4281 42.2C96.8548 41.2533 95.6281 39.94 94.7481 38.26C93.8681 36.5667 93.4281 34.5933 93.4281 32.34C93.4281 29.98 93.8615 27.94 94.7281 26.22C95.5948 24.4867 96.8015 23.1533 98.3481 22.22C99.9081 21.2733 101.735 20.8 103.828 20.8C106.001 20.8 107.848 21.3 109.368 22.3C110.901 23.3 112.048 24.7267 112.808 26.58C113.581 28.4333 113.915 30.64 113.808 33.2H110.208V31.92C110.168 29.2667 109.628 27.2867 108.588 25.98C107.548 24.66 106.001 24 103.948 24C101.748 24 100.075 24.7067 98.9281 26.12C97.7815 27.5333 97.2081 29.56 97.2081 32.2C97.2081 34.7467 97.7815 36.72 98.9281 38.12C100.075 39.52 101.708 40.22 103.828 40.22C105.255 40.22 106.495 39.8933 107.548 39.24C108.601 38.5867 109.428 37.6467 110.028 36.42L113.448 37.6C112.608 39.5067 111.341 40.9867 109.648 42.04C107.968 43.08 106.081 43.6 103.988 43.6ZM96.0081 33.2V30.34H111.968V33.2H96.0081ZM122.08 43L115.48 21.38L119.02 21.4L123.84 37.2L128.7 21.4H131.84L136.68 37.2L141.52 21.4H145.04L138.44 43H135.48L130.26 26.58L125.04 43H122.08Z" fill="#021835"/>
<path d="M154.732 43L146.312 14.2H151.372L157.112 35L162.832 14.24L167.892 14.2L173.632 35L179.352 14.2H184.412L176.012 43H171.252L165.352 22.52L159.492 43H154.732ZM187.294 18.12V13.7H192.114V18.12H187.294ZM187.294 43V21.4H192.114V43H187.294ZM213.045 43V32.6C213.045 31.92 212.998 31.1667 212.905 30.34C212.811 29.5133 212.591 28.72 212.245 27.96C211.911 27.1867 211.405 26.5533 210.725 26.06C210.058 25.5667 209.151 25.32 208.005 25.32C207.391 25.32 206.785 25.42 206.185 25.62C205.585 25.82 205.038 26.1667 204.545 26.66C204.065 27.14 203.678 27.8067 203.385 28.66C203.091 29.5 202.945 30.58 202.945 31.9L200.085 30.68C200.085 28.84 200.438 27.1733 201.145 25.68C201.865 24.1867 202.918 23 204.305 22.12C205.691 21.2267 207.398 20.78 209.425 20.78C211.025 20.78 212.345 21.0467 213.385 21.58C214.425 22.1133 215.251 22.7933 215.865 23.62C216.478 24.4467 216.931 25.3267 217.225 26.26C217.518 27.1933 217.705 28.08 217.785 28.92C217.878 29.7467 217.925 30.42 217.925 30.94V43H213.045ZM198.065 43V21.4H202.365V28.1H202.945V43H198.065ZM232.224 53.2C231.024 53.2 229.87 53.0133 228.764 52.64C227.67 52.2667 226.684 51.7267 225.804 51.02C224.924 50.3267 224.204 49.4867 223.644 48.5L228.084 46.3C228.497 47.0867 229.077 47.6667 229.824 48.04C230.584 48.4267 231.39 48.62 232.244 48.62C233.244 48.62 234.137 48.44 234.924 48.08C235.71 47.7333 236.317 47.2133 236.744 46.52C237.184 45.84 237.39 44.9867 237.364 43.96V37.82H237.964V21.4H242.184V44.04C242.184 44.5867 242.157 45.1067 242.104 45.6C242.064 46.1067 241.99 46.6 241.884 47.08C241.564 48.48 240.95 49.6267 240.044 50.52C239.137 51.4267 238.01 52.1 236.664 52.54C235.33 52.98 233.85 53.2 232.224 53.2ZM231.804 43.6C229.817 43.6 228.084 43.1 226.604 42.1C225.124 41.1 223.977 39.74 223.164 38.02C222.35 36.3 221.944 34.36 221.944 32.2C221.944 30.0133 222.35 28.0667 223.164 26.36C223.99 24.64 225.157 23.2867 226.664 22.3C228.17 21.3 229.944 20.8 231.984 20.8C234.037 20.8 235.757 21.3 237.144 22.3C238.544 23.2867 239.604 24.64 240.324 26.36C241.044 28.08 241.404 30.0267 241.404 32.2C241.404 34.3467 241.044 36.2867 240.324 38.02C239.604 39.74 238.53 41.1 237.104 42.1C235.677 43.1 233.91 43.6 231.804 43.6ZM232.544 39.28C233.837 39.28 234.877 38.9867 235.664 38.4C236.464 37.8 237.044 36.9667 237.404 35.9C237.777 34.8333 237.964 33.6 237.964 32.2C237.964 30.7867 237.777 29.5533 237.404 28.5C237.044 27.4333 236.477 26.6067 235.704 26.02C234.93 25.42 233.93 25.12 232.704 25.12C231.41 25.12 230.344 25.44 229.504 26.08C228.664 26.7067 228.044 27.56 227.644 28.64C227.244 29.7067 227.044 30.8933 227.044 32.2C227.044 33.52 227.237 34.72 227.624 35.8C228.024 36.8667 228.63 37.7133 229.444 38.34C230.257 38.9667 231.29 39.28 232.544 39.28ZM256.132 43.6C253.466 43.6 251.299 43 249.632 41.8C247.966 40.6 246.952 38.9133 246.592 36.74L251.512 35.98C251.766 37.0467 252.326 37.8867 253.192 38.5C254.059 39.1133 255.152 39.42 256.472 39.42C257.632 39.42 258.526 39.1933 259.152 38.74C259.792 38.2733 260.112 37.64 260.112 36.84C260.112 36.3467 259.992 35.9533 259.752 35.66C259.526 35.3533 259.019 35.06 258.232 34.78C257.446 34.5 256.239 34.1467 254.612 33.72C252.799 33.24 251.359 32.7267 250.292 32.18C249.226 31.62 248.459 30.96 247.992 30.2C247.526 29.44 247.292 28.52 247.292 27.44C247.292 26.0933 247.646 24.92 248.352 23.92C249.059 22.92 250.046 22.1533 251.312 21.62C252.579 21.0733 254.072 20.8 255.792 20.8C257.472 20.8 258.959 21.06 260.252 21.58C261.559 22.1 262.612 22.84 263.412 23.8C264.212 24.76 264.706 25.8867 264.892 27.18L259.972 28.06C259.852 27.14 259.432 26.4133 258.712 25.88C258.006 25.3467 257.059 25.0467 255.872 24.98C254.739 24.9133 253.826 25.0867 253.132 25.5C252.439 25.9 252.092 26.4667 252.092 27.2C252.092 27.6133 252.232 27.9667 252.512 28.26C252.792 28.5533 253.352 28.8467 254.192 29.14C255.046 29.4333 256.312 29.7933 257.992 30.22C259.712 30.66 261.086 31.1667 262.112 31.74C263.152 32.3 263.899 32.9733 264.352 33.76C264.819 34.5467 265.052 35.5 265.052 36.62C265.052 38.7933 264.259 40.5 262.672 41.74C261.099 42.98 258.919 43.6 256.132 43.6Z" fill="#06536B"/>
<path d="M0.0100034 24.6244C0.150003 23.7244 0.480003 22.8644 0.910003 22.0644C1.34 21.2644 1.89 20.5144 2.54 19.8444C2.87 19.5144 3.22 19.1944 3.61 18.9044C4 18.6044 4.43 18.3344 4.94 18.0944L5.03 18.0544L5.17 18.0044C5.26 17.9744 5.36 17.9444 5.46 17.9144C5.65 17.8444 5.84 17.8344 6.02 17.8044C6.22 17.7744 6.4 17.7844 6.57 17.7844C6.75 17.7844 6.93 17.7944 7.1 17.8344C7.8 17.9444 8.43 18.2644 8.96 18.6544C9.09 18.7544 9.21 18.8644 9.33 18.9644C9.45 19.0844 9.55 19.2044 9.65 19.3244C9.87 19.5544 10.02 19.8044 10.17 20.0544C10.34 20.3044 10.43 20.5644 10.55 20.8144C10.67 21.0744 10.73 21.3244 10.81 21.5744C11.09 22.5844 11.17 23.5544 11.14 24.4744L11.11 25.1644L11.03 25.8344C11 26.0544 10.98 26.2844 10.95 26.5044L10.83 27.1544L10.71 27.8044L10.58 28.4044C10.49 28.8044 10.4 29.2144 10.3 29.6144C9.93 31.2244 9.48 32.8044 9.05 34.3844C8.62 35.9644 8.15 37.5344 7.68 39.0944C6.73 42.2244 5.72 45.3244 4.61 48.4144L3.01 47.9144C3.38 46.7644 3.81 45.6444 4.28 44.5444C4.77 43.4544 5.28 42.3644 5.85 41.3244C6.97 39.2144 8.22 37.1744 9.58 35.2244C12.31 31.3144 15.45 27.6744 18.95 24.3844C22.45 21.1044 26.33 18.1744 30.53 15.7244C34.73 13.2744 39.28 11.3744 44.04 10.0844C45.36 9.73439 46.71 10.5044 47.07 11.8144C47.43 13.1244 46.65 14.4744 45.33 14.8344C45.29 14.8444 45.24 14.8544 45.2 14.8644L45.17 14.8744C40.81 15.7944 36.53 17.2744 32.5 19.3344C28.47 21.3844 24.66 23.9144 21.15 26.8444C17.65 29.7744 14.43 33.0844 11.59 36.6944C10.17 38.4944 8.85 40.3844 7.66 42.3444C7.05 43.3144 6.51 44.3244 5.98 45.3444C5.47 46.3544 5 47.3944 4.59 48.4444C4.42 48.8744 3.94 49.0944 3.5 48.9244C3.11 48.7744 2.89 48.3644 2.98 47.9644L2.99 47.9444C3.67 44.7644 4.39 41.5844 5.11 38.4144L6.18 33.6644C6.53 32.0844 6.87 30.5044 7.2 28.9244C7.53 27.3244 7.82 25.8344 7.82 24.4244C7.84 24.0644 7.8 23.7344 7.78 23.4044C7.77 23.2344 7.73 23.0944 7.7 22.9344L7.66 22.7044L7.6 22.4944C7.44 21.9244 7.17 21.5144 6.92 21.3244C6.67 21.1244 6.41 21.1444 6.33 21.1844C6.1 21.2744 5.83 21.4344 5.56 21.6144C5.29 21.7944 5.01 21.9944 4.73 22.2144C3.61 23.0844 2.6 24.1344 1.55 25.3044L1.52 25.3344C1.19 25.6844 0.640003 25.7244 0.290003 25.4044C0.0600034 25.2044 -0.0299966 24.9044 0.0100034 24.6244Z" fill="#0C556D"/>
<path d="M6.32 46.7244C6.15 46.6144 5.91 46.6744 5.81 46.8444L5.1 47.9944C5 48.1444 5.04 48.3444 5.19 48.4444C5.34 48.5544 5.55 48.5144 5.66 48.3644V48.3544L6.42 47.2644L6.43 47.2544C6.43 47.2444 6.44 47.2444 6.44 47.2344C6.55 47.0644 6.49 46.8344 6.32 46.7244Z" fill="#091B33"/>
<path d="M7.31 44.6045L6.54 45.7245C6.42 45.9045 6.46 46.1445 6.63 46.2745C6.81 46.4145 7.07 46.3745 7.2 46.2045L7.21 46.1945L8.02 45.1445L8.03 45.1345C8.03 45.1245 8.04 45.1245 8.04 45.1145C8.18 44.9145 8.13 44.6344 7.92 44.4944C7.73 44.3444 7.45 44.3945 7.31 44.6045Z" fill="#091B33"/>
<path d="M8.92 42.4244L8.1 43.5044C7.95 43.7044 7.98 43.9944 8.18 44.1644C8.38 44.3344 8.69 44.3144 8.86 44.1044L8.87 44.0944L9.73 43.0844L9.74 43.0744C9.75 43.0644 9.75 43.0644 9.76 43.0544C9.93 42.8244 9.89 42.4944 9.66 42.3244C9.42 42.1544 9.09 42.2044 8.92 42.4244Z" fill="#091B33"/>
<path d="M10.62 40.3244L9.76 41.3644C9.58 41.5844 9.6 41.9244 9.81 42.1244C10.04 42.3344 10.39 42.3144 10.6 42.0944L10.61 42.0844L11.51 41.1044L11.52 41.0944C11.53 41.0844 11.53 41.0744 11.54 41.0744C11.75 40.8244 11.71 40.4544 11.46 40.2444C11.21 40.0344 10.83 40.0744 10.62 40.3244Z" fill="#091B33"/>
<path d="M48.43 20.0744L46.92 19.9044C46.65 19.8744 46.4 19.9144 46.16 19.9944C45.94 19.9044 45.69 19.8544 45.43 19.8644L43.97 19.9444C43.71 19.9544 43.47 20.0344 43.26 20.1544C43.03 20.0944 42.79 20.0644 42.54 20.1144L41.14 20.3644C40.89 20.4144 40.67 20.5144 40.47 20.6644C40.24 20.6144 40 20.6144 39.76 20.6844L38.4 21.0644C38.16 21.1344 37.95 21.2644 37.77 21.4244C37.54 21.3944 37.3 21.4044 37.06 21.4944L35.75 21.9644C35.51 22.0444 35.31 22.1944 35.16 22.3744C34.93 22.3544 34.69 22.3744 34.46 22.4744L33.19 23.0244C32.96 23.1244 32.78 23.3044 32.64 23.4944C32.4 23.4744 32.16 23.4944 31.94 23.6044L30.71 24.2144C30.48 24.3344 30.32 24.5144 30.19 24.7244C29.95 24.7044 29.71 24.7344 29.49 24.8544L28.29 25.5244C28.07 25.6544 27.91 25.8444 27.81 26.0644C27.57 26.0444 27.33 26.0844 27.11 26.2144L25.95 26.9344C25.73 27.0744 25.59 27.2844 25.5 27.5044C25.26 27.4844 25.02 27.5344 24.8 27.6744L23.67 28.4444C23.45 28.5944 23.32 28.8144 23.25 29.0444C23.01 29.0244 22.76 29.0844 22.56 29.2344L21.46 30.0444C21.25 30.2044 21.12 30.4344 21.07 30.6744C20.83 30.6544 20.58 30.7144 20.38 30.8844L19.32 31.7344C19.11 31.9044 19 32.1544 18.99 32.4144C18.74 32.3744 18.48 32.4344 18.27 32.6144L17.24 33.5044C17.03 33.6944 16.94 33.9644 16.97 34.2344C16.71 34.1744 16.44 34.2244 16.23 34.4244L15.24 35.3544C15.03 35.5544 14.96 35.8544 15.03 36.1244C14.77 36.0344 14.47 36.0944 14.27 36.3044L13.32 37.2744C13.08 37.5244 13.06 37.9044 13.27 38.1744C13 37.9844 12.62 38.0144 12.39 38.2644L11.48 39.2744C11.26 39.5244 11.26 39.9044 11.5 40.1344C11.75 40.3744 12.15 40.3744 12.39 40.1344L12.4 40.1244L13.34 39.1844L13.35 39.1744C13.36 39.1644 13.37 39.1644 13.37 39.1544C13.59 38.9144 13.58 38.5544 13.39 38.3144C13.66 38.5144 14.03 38.5144 14.29 38.2844L14.3 38.2744L15.28 37.3744L15.29 37.3644C15.3 37.3544 15.31 37.3444 15.32 37.3344C15.51 37.1344 15.56 36.8644 15.49 36.6244C15.75 36.7244 16.04 36.6944 16.27 36.5044L16.28 36.4944L17.29 35.6344L17.3 35.6244C17.31 35.6144 17.32 35.6044 17.33 35.5944C17.51 35.4244 17.59 35.1844 17.57 34.9444C17.82 35.0044 18.09 34.9744 18.3 34.8044L18.31 34.7944L19.36 33.9744L19.38 33.9644C19.39 33.9544 19.4 33.9444 19.41 33.9344C19.59 33.7744 19.68 33.5644 19.7 33.3444C19.94 33.3844 20.19 33.3444 20.4 33.1844L20.42 33.1744L21.5 32.4044L21.52 32.3944C21.53 32.3844 21.55 32.3744 21.56 32.3644C21.74 32.2244 21.84 32.0244 21.88 31.8144C22.11 31.8444 22.36 31.8044 22.57 31.6644L22.59 31.6544L23.7 30.9244L23.72 30.9144C23.74 30.9044 23.75 30.8944 23.76 30.8844C23.94 30.7444 24.05 30.5544 24.11 30.3544C24.34 30.3844 24.58 30.3544 24.79 30.2244L24.81 30.2144L25.94 29.5344L26 29.5444C26.02 29.5344 26.03 29.5244 26.05 29.5144C26.23 29.3944 26.35 29.2144 26.43 29.0244C26.66 29.0544 26.89 29.0244 27.11 28.9144L27.13 28.9044L28.29 28.2744L28.31 28.2644C28.33 28.2544 28.34 28.2444 28.36 28.2344C28.54 28.1244 28.66 27.9644 28.76 27.7844C28.98 27.8044 29.21 27.7944 29.43 27.6844L29.46 27.6744L30.64 27.0944L30.67 27.0844C30.69 27.0744 30.71 27.0644 30.73 27.0544C30.91 26.9544 31.05 26.8044 31.15 26.6344C31.37 26.6544 31.59 26.6444 31.8 26.5544L31.83 26.5444L33.03 26.0244L33.06 26.0144C33.08 26.0044 33.1 25.9944 33.12 25.9844C33.3 25.8944 33.44 25.7644 33.56 25.6244C33.77 25.6544 33.99 25.6344 34.2 25.5544L34.24 25.5444L35.46 25.0944L35.5 25.0844C35.52 25.0744 35.54 25.0644 35.57 25.0544C35.75 24.9744 35.9 24.8744 36.02 24.7444C36.22 24.7744 36.44 24.7644 36.65 24.7044L36.7 24.6944L37.94 24.3244L37.99 24.3144C38.01 24.3044 38.04 24.3044 38.06 24.2944C38.23 24.2344 38.38 24.1344 38.51 24.0244C38.71 24.0644 38.91 24.0644 39.12 24.0144L39.18 24.0044L40.43 23.7344L40.49 23.7244C40.52 23.7144 40.54 23.7144 40.57 23.7044C40.73 23.6544 40.88 23.5844 41.02 23.4944C41.2 23.5444 41.4 23.5544 41.6 23.5344L41.69 23.5244L42.94 23.3744L43.03 23.3644C43.06 23.3644 43.08 23.3544 43.11 23.3544C43.27 23.3244 43.41 23.2744 43.54 23.2044C43.71 23.2644 43.88 23.2944 44.07 23.2944H44.19H45.42H45.54C45.57 23.2944 45.6 23.2944 45.63 23.2944C45.77 23.2844 45.89 23.2544 46.02 23.2244C46.15 23.2844 46.29 23.3344 46.44 23.3644L46.62 23.3944L47.78 23.5844L47.95 23.6144C47.98 23.6244 48.01 23.6244 48.04 23.6244C49 23.6844 49.88 22.9844 49.99 22.0244C50.1 21.0544 49.4 20.1844 48.43 20.0744Z" fill="#091B33"/>
<path d="M11.78 45.1044C11.72 44.9944 11.58 44.9844 11.47 45.0844L10.77 45.7444C10.68 45.8344 10.64 45.9844 10.69 46.0844C10.74 46.1944 10.86 46.2044 10.96 46.1244L11.67 45.5144L11.68 45.5044L11.69 45.4944C11.81 45.3844 11.84 45.2144 11.78 45.1044Z" fill="#091B33"/>
<path d="M12.91 43.8044L12.19 44.4344C12.08 44.5344 12.03 44.7144 12.08 44.8444C12.14 44.9844 12.28 45.0144 12.41 44.9144H12.42L13.15 44.3444L13.16 44.3344L13.17 44.3244C13.3 44.2044 13.35 44.0044 13.28 43.8644C13.2 43.7144 13.04 43.6944 12.91 43.8044Z" fill="#091B33"/>
<path d="M14.37 42.6144L13.63 43.2044C13.49 43.3144 13.43 43.5244 13.49 43.6844C13.55 43.8444 13.72 43.8944 13.87 43.7844H13.88L14.62 43.2444L14.63 43.2344C14.64 43.2344 14.64 43.2244 14.64 43.2244C14.8 43.0944 14.86 42.8544 14.79 42.6844C14.71 42.5244 14.53 42.4844 14.37 42.6144Z" fill="#091B33"/>
<path d="M15.87 41.4844L15.12 42.0444C14.96 42.1644 14.87 42.4044 14.93 42.5944C14.99 42.7844 15.18 42.8544 15.36 42.7344L15.37 42.7244L16.13 42.2244H16.14C16.15 42.2244 16.15 42.2144 16.16 42.2144C16.34 42.0844 16.43 41.8144 16.35 41.6144C16.27 41.4144 16.05 41.3444 15.87 41.4844Z" fill="#091B33"/>
<path d="M41.62 35.1644L40.87 34.7244C40.74 34.6444 40.59 34.6244 40.44 34.6244C40.35 34.5144 40.23 34.4244 40.09 34.3844L39.29 34.1344C39.15 34.0944 39 34.0944 38.85 34.1344C38.75 34.0444 38.62 33.9744 38.48 33.9544L37.67 33.8344C37.52 33.8144 37.38 33.8444 37.23 33.9044C37.12 33.8244 36.99 33.7744 36.85 33.7644L36.02 33.7444C35.87 33.7444 35.72 33.7844 35.59 33.8644C35.48 33.7944 35.35 33.7544 35.2 33.7644L34.37 33.8144C34.22 33.8244 34.07 33.8844 33.94 33.9744C33.82 33.9044 33.69 33.8744 33.54 33.8944L32.71 34.0144C32.56 34.0344 32.42 34.1244 32.29 34.2344C32.17 34.1744 32.04 34.1344 31.89 34.1644L31.06 34.3344C30.9 34.3644 30.77 34.4644 30.64 34.5844C30.52 34.5244 30.38 34.4944 30.23 34.5344L29.41 34.7544C29.26 34.7944 29.12 34.9044 29 35.0344C28.88 34.9744 28.74 34.9444 28.59 34.9944L27.77 35.2644C27.61 35.3144 27.48 35.4344 27.37 35.5744C27.25 35.5144 27.11 35.4944 26.95 35.5444L26.13 35.8544C25.97 35.9144 25.84 36.0344 25.74 36.1944C25.62 36.1344 25.47 36.1144 25.32 36.1844L24.51 36.5244C24.35 36.5944 24.22 36.7244 24.13 36.8844C24.01 36.8144 23.86 36.8144 23.71 36.8844L22.91 37.2644C22.75 37.3444 22.62 37.4944 22.54 37.6744C22.42 37.5944 22.26 37.5844 22.1 37.6644L21.3 38.0844C21.14 38.1744 21.01 38.3444 20.95 38.5444C20.83 38.4444 20.67 38.4244 20.51 38.5244L19.72 38.9744C19.55 39.0744 19.43 39.2744 19.39 39.4744C19.28 39.3544 19.1 39.3344 18.94 39.4444L18.16 39.9344C17.96 40.0544 17.85 40.3244 17.88 40.5644C17.79 40.3744 17.58 40.3144 17.39 40.4444L16.62 40.9644C16.43 41.0944 16.33 41.3644 16.39 41.5744C16.45 41.7944 16.66 41.8844 16.86 41.7644L16.87 41.7544L17.63 41.2944H17.64C17.65 41.2944 17.65 41.2844 17.66 41.2844C17.84 41.1544 17.94 40.9044 17.91 40.6944C17.99 40.8944 18.19 40.9744 18.39 40.8644H18.4L19.17 40.4344H19.18C19.19 40.4344 19.19 40.4244 19.2 40.4244C19.36 40.3244 19.46 40.1444 19.49 39.9544C19.6 40.0744 19.76 40.1144 19.94 40.0344H19.95L20.73 39.6444H20.74C20.75 39.6444 20.76 39.6344 20.76 39.6344C20.91 39.5544 21.01 39.3944 21.07 39.2244C21.18 39.3244 21.33 39.3544 21.5 39.2844H21.51L22.29 38.9244L22.3 38.9144C22.31 38.9144 22.32 38.9044 22.33 38.9044C22.47 38.8344 22.58 38.7044 22.65 38.5544C22.76 38.6344 22.91 38.6544 23.07 38.5944H23.08L23.87 38.2744L23.88 38.2644C23.89 38.2644 23.9 38.2544 23.91 38.2544C24.05 38.1944 24.16 38.0744 24.24 37.9344C24.35 38.0044 24.49 38.0344 24.65 37.9744H24.66L25.45 37.6944L25.46 37.6844C25.47 37.6844 25.48 37.6744 25.49 37.6744C25.63 37.6144 25.74 37.5044 25.83 37.3744C25.94 37.4444 26.08 37.4744 26.23 37.4244L26.24 37.4144L27.03 37.1744H27.05C27.06 37.1744 27.07 37.1644 27.08 37.1644C27.21 37.1144 27.32 37.0144 27.42 36.8944C27.53 36.9644 27.66 36.9944 27.81 36.9544H27.83L28.62 36.7544H28.64C28.65 36.7544 28.66 36.7444 28.68 36.7444C28.81 36.7044 28.92 36.6144 29.02 36.5144C29.13 36.5744 29.26 36.6144 29.4 36.5844H29.42L30.21 36.4244H30.23C30.24 36.4244 30.26 36.4144 30.27 36.4144C30.4 36.3844 30.51 36.3044 30.61 36.2044C30.72 36.2644 30.84 36.3044 30.98 36.2844H31L31.78 36.1744H31.8C31.81 36.1744 31.83 36.1644 31.84 36.1644C31.96 36.1444 32.07 36.0744 32.18 36.0044C32.28 36.0644 32.4 36.1044 32.54 36.0944H32.57L33.35 36.0344H33.38C33.4 36.0344 33.41 36.0344 33.42 36.0344C33.53 36.0144 33.65 35.9744 33.75 35.9044C33.85 35.9744 33.96 36.0144 34.09 36.0144H34.12H34.88H34.91C34.92 36.0144 34.94 36.0144 34.95 36.0144C35.06 36.0044 35.17 35.9744 35.27 35.9244C35.36 35.9944 35.47 36.0344 35.59 36.0444H35.63L36.37 36.1144H36.41C36.43 36.1144 36.44 36.1144 36.46 36.1144C36.56 36.1144 36.66 36.0944 36.76 36.0544C36.84 36.1244 36.94 36.1744 37.05 36.2044L37.1 36.2144L37.81 36.3744L37.86 36.3844C37.88 36.3844 37.89 36.3844 37.91 36.3944C38 36.4044 38.09 36.3944 38.18 36.3844C38.25 36.4544 38.33 36.5244 38.43 36.5644L38.49 36.5944L39.14 36.8544L39.2 36.8844C39.22 36.8944 39.23 36.8944 39.25 36.9044C39.32 36.9244 39.4 36.9344 39.48 36.9344C39.53 37.0044 39.59 37.0744 39.66 37.1244L39.75 37.1844L40.31 37.5644L40.39 37.6244C40.4 37.6344 40.42 37.6444 40.43 37.6544C40.91 37.9344 41.57 37.6344 41.9 36.9744C42.22 36.2144 42.1 35.4444 41.62 35.1644Z" fill="#091B33"/>
<path d="M17.82 37.6944C17.75 37.5844 17.61 37.5744 17.51 37.6544L16.83 38.2244C16.74 38.2944 16.71 38.4344 16.77 38.5344C16.82 38.6344 16.95 38.6544 17.04 38.5844L17.73 38.0544H17.74C17.74 38.0544 17.75 38.0544 17.75 38.0444C17.86 37.9644 17.89 37.8044 17.82 37.6944Z" fill="#091B33"/>
<path d="M18.9 36.5744L18.2 37.1144C18.09 37.2044 18.05 37.3644 18.11 37.4844C18.17 37.6144 18.32 37.6444 18.44 37.5644H18.45L19.16 37.0744H19.17L19.18 37.0644C19.31 36.9644 19.35 36.7744 19.27 36.6444C19.19 36.5044 19.02 36.4744 18.9 36.5744Z" fill="#091B33"/>
<path d="M20.32 35.5444L19.6 36.0544C19.47 36.1444 19.41 36.3444 19.48 36.4844C19.55 36.6344 19.72 36.6844 19.86 36.5944H19.87L20.59 36.1344H20.6C20.61 36.1344 20.61 36.1244 20.61 36.1244C20.76 36.0144 20.82 35.8044 20.74 35.6444C20.66 35.4744 20.47 35.4344 20.32 35.5444Z" fill="#091B33"/>
<path d="M21.77 34.5844L21.04 35.0544C20.88 35.1544 20.81 35.3744 20.87 35.5444C20.94 35.7244 21.13 35.7944 21.3 35.6944H21.31L22.05 35.2744H22.06C22.07 35.2744 22.07 35.2644 22.08 35.2644C22.26 35.1544 22.33 34.9044 22.25 34.7244C22.16 34.5244 21.95 34.4644 21.77 34.5844Z" fill="#091B33"/>
<path d="M47.39 29.9644L46.62 29.5244C46.48 29.4444 46.33 29.4144 46.18 29.4144C46.08 29.3044 45.96 29.2244 45.82 29.1744L45.01 28.9044C44.87 28.8544 44.72 28.8544 44.57 28.8844C44.46 28.7944 44.33 28.7244 44.19 28.7044L43.37 28.5544C43.22 28.5244 43.07 28.5444 42.93 28.5944C42.82 28.5144 42.69 28.4644 42.54 28.4544L41.71 28.3944C41.56 28.3844 41.41 28.4244 41.28 28.4844C41.16 28.4144 41.03 28.3744 40.88 28.3744L40.05 28.3844C39.9 28.3844 39.76 28.4344 39.63 28.5144C39.51 28.4444 39.37 28.4144 39.22 28.4244L38.39 28.4944C38.24 28.5044 38.1 28.5844 37.97 28.6744C37.85 28.6144 37.71 28.5744 37.56 28.5944L36.74 28.7144C36.59 28.7344 36.45 28.8244 36.33 28.9244C36.21 28.8644 36.07 28.8244 35.92 28.8544L35.1 29.0144C34.95 29.0444 34.81 29.1344 34.7 29.2544C34.57 29.1944 34.43 29.1644 34.28 29.2044L33.47 29.4144C33.32 29.4544 33.18 29.5544 33.08 29.6844C32.95 29.6244 32.81 29.5944 32.66 29.6444L31.85 29.8844C31.7 29.9344 31.56 30.0444 31.47 30.1744C31.34 30.1144 31.2 30.0944 31.05 30.1444L30.25 30.4244C30.1 30.4744 29.97 30.5944 29.88 30.7444C29.76 30.6744 29.6 30.6644 29.45 30.7244L28.66 31.0344C28.5 31.0944 28.38 31.2344 28.31 31.3944C28.18 31.3144 28.03 31.2944 27.87 31.3644L27.09 31.7044C26.93 31.7744 26.81 31.9344 26.76 32.1044C26.64 32.0144 26.47 31.9844 26.31 32.0644L25.54 32.4444C25.37 32.5244 25.26 32.7044 25.23 32.8844C25.11 32.7744 24.94 32.7444 24.77 32.8344L24.01 33.2444C23.82 33.3444 23.71 33.5844 23.75 33.8044C23.65 33.6244 23.44 33.5644 23.25 33.6744L22.5 34.1144C22.32 34.2244 22.22 34.4644 22.29 34.6644C22.36 34.8744 22.58 34.9544 22.77 34.8544H22.78L23.53 34.4644H23.54C23.55 34.4644 23.55 34.4644 23.56 34.4544C23.74 34.3444 23.83 34.1244 23.78 33.9244C23.87 34.1144 24.08 34.1944 24.27 34.1044H24.28L25.04 33.7444H25.05C25.06 33.7444 25.06 33.7344 25.07 33.7344C25.22 33.6544 25.32 33.4944 25.34 33.3244C25.45 33.4444 25.62 33.4844 25.79 33.4144H25.8L26.57 33.0944H26.58C26.59 33.0944 26.6 33.0844 26.6 33.0844C26.74 33.0144 26.84 32.8744 26.89 32.7244C27.01 32.8144 27.16 32.8544 27.32 32.7944H27.33L28.1 32.5044H28.11C28.12 32.5044 28.13 32.4944 28.14 32.4944C28.28 32.4344 28.38 32.3244 28.45 32.1844C28.57 32.2644 28.72 32.2844 28.87 32.2344H28.88L29.66 31.9744H29.67C29.68 31.9744 29.69 31.9644 29.7 31.9644C29.83 31.9144 29.94 31.8044 30.01 31.6844C30.13 31.7544 30.27 31.7844 30.42 31.7444H30.43L31.21 31.5244H31.22C31.23 31.5244 31.24 31.5144 31.25 31.5144C31.38 31.4644 31.49 31.3744 31.57 31.2544C31.69 31.3244 31.82 31.3544 31.97 31.3244H31.98L32.76 31.1344H32.78C32.79 31.1344 32.8 31.1244 32.81 31.1244C32.94 31.0844 33.05 30.9944 33.14 30.8944C33.26 30.9644 33.39 30.9944 33.54 30.9744H33.56L34.35 30.8244H34.37C34.38 30.8244 34.39 30.8144 34.4 30.8144C34.53 30.7844 34.63 30.7044 34.73 30.6144C34.84 30.6744 34.97 30.7144 35.12 30.6944H35.14L35.93 30.5844H35.95C35.96 30.5844 35.98 30.5844 35.99 30.5744C36.12 30.5444 36.23 30.4844 36.33 30.4044C36.44 30.4644 36.56 30.5044 36.7 30.4944H36.72L37.5 30.4244H37.52C37.53 30.4244 37.55 30.4244 37.56 30.4144C37.68 30.3944 37.79 30.3444 37.89 30.2844C38 30.3444 38.12 30.3844 38.25 30.3744H38.28L39.06 30.3544H39.09C39.11 30.3544 39.12 30.3544 39.13 30.3544C39.24 30.3444 39.35 30.3144 39.45 30.2544C39.55 30.3144 39.67 30.3644 39.8 30.3644H39.83L40.6 30.3944H40.63C40.64 30.3944 40.66 30.3944 40.67 30.3944C40.78 30.3944 40.88 30.3644 40.98 30.3244C41.08 30.3944 41.19 30.4344 41.31 30.4544L41.35 30.4644L42.1 30.5644L42.14 30.5744C42.16 30.5744 42.17 30.5744 42.19 30.5744C42.29 30.5844 42.39 30.5644 42.49 30.5344C42.58 30.6044 42.68 30.6544 42.79 30.6844L42.84 30.6944L43.56 30.8644L43.61 30.8744C43.63 30.8744 43.64 30.8844 43.66 30.8844C43.75 30.9044 43.84 30.8944 43.93 30.8844C44.01 30.9544 44.09 31.0144 44.19 31.0544L44.26 31.0844L44.92 31.3544L44.99 31.3844C45.01 31.3944 45.02 31.3944 45.04 31.4044C45.12 31.4244 45.19 31.4444 45.27 31.4444C45.33 31.5144 45.39 31.5744 45.46 31.6244L45.55 31.6844L46.13 32.0544L46.22 32.1144C46.23 32.1244 46.25 32.1344 46.27 32.1444C46.77 32.4244 47.42 32.1744 47.72 31.5944C48.04 30.9444 47.89 30.2444 47.39 29.9644Z" fill="#091B33"/>
</svg>
