<svg width="20" height="20" viewBox="0 0 20 20" fill="none" xmlns="http://www.w3.org/2000/svg">
<g clip-path="url(#clip0_17_81)">
<path fill-rule="evenodd" clip-rule="evenodd" d="M10.2712 6.55375C11.4312 4.985 12.7137 3.75 14.3538 3.75C17.45 3.75 20 7.69125 20.0012 12.3837C20.0012 15.2463 18.7688 17.04 16.555 17.04C14.6263 17.04 13.5612 15.9575 11.65 12.76L10.8162 11.3563L10.6687 11.11C10.4513 10.7425 10.2305 10.3771 10.0063 10.0138L8.53375 12.6138C6.4425 16.27 5.265 17.04 3.63 17.04C1.3575 17.04 0 15.2713 0 12.4663C0 7.985 2.49375 3.75 5.7475 3.75C6.14625 3.75 6.52875 3.79875 6.9025 3.9025C7.29 4.01 7.66625 4.1775 8.04375 4.41125C8.765 4.86 9.48625 5.555 10.2712 6.55375ZM12.1663 9.33375C11.8512 8.82125 11.5487 8.35 11.2575 7.9175L11.25 7.9075C12.3062 6.27625 13.1788 5.465 14.215 5.465C16.3687 5.465 18.0925 8.63625 18.0925 12.5312C18.0925 14.0163 17.605 14.8775 16.5988 14.8775C15.6325 14.8775 15.1712 14.24 13.3362 11.29L12.165 9.33375H12.1663ZM6.0575 5.945C6.96375 6.07 7.78875 6.7375 8.9825 8.44625C8.29371 9.50097 7.61244 10.5606 6.93875 11.625C5.2425 14.2825 4.65625 14.8788 3.7125 14.8788C2.74125 14.8788 2.1625 14.0263 2.1625 12.5038C2.1625 9.25125 3.785 5.92375 5.72 5.92375C5.83375 5.92375 5.94625 5.93125 6.0575 5.94625V5.945Z" fill="white"/>
</g>
<defs>
<clipPath id="clip0_17_81">
<rect width="20" height="20" fill="white"/>
</clipPath>
</defs>
</svg>
