<svg width="35" height="35" viewBox="0 0 35 35" fill="none" xmlns="http://www.w3.org/2000/svg">
<g clip-path="url(#clip0_10_106)">
<path d="M25.6856 22.6276C27.8038 19.7372 28.7525 16.1537 28.3419 12.5939C27.9314 9.03405 26.1918 5.76053 23.4714 3.42819C20.7509 1.09586 17.2501 -0.123269 13.6693 0.0147031C10.0886 0.152676 6.69197 1.63758 4.15903 4.17233C1.62608 6.70709 0.143614 10.1048 0.00820354 13.6856C-0.127207 17.2665 1.09443 20.7664 3.42871 23.4852C5.76299 26.204 9.03776 27.9412 12.5979 28.3492C16.158 28.7572 19.7408 27.8059 22.6297 25.6857H22.6275C22.6931 25.7732 22.7631 25.8563 22.8419 25.9373L31.2638 34.3592C31.6739 34.7696 32.2304 35.0003 32.8106 35.0005C33.3909 35.0007 33.9475 34.7704 34.358 34.3603C34.7684 33.9501 34.9991 33.3937 34.9994 32.8134C34.9996 32.2331 34.7692 31.6765 34.3591 31.266L25.9372 22.8442C25.859 22.765 25.7749 22.6919 25.6856 22.6254V22.6276ZM26.25 14.2188C26.25 15.7988 25.9388 17.3633 25.3342 18.823C24.7296 20.2827 23.8433 21.609 22.7261 22.7262C21.6089 23.8434 20.2826 24.7296 18.8229 25.3343C17.3632 25.9389 15.7987 26.2501 14.2188 26.2501C12.6388 26.2501 11.0743 25.9389 9.61459 25.3343C8.15489 24.7296 6.82858 23.8434 5.71137 22.7262C4.59417 21.609 3.70795 20.2827 3.10333 18.823C2.4987 17.3633 2.1875 15.7988 2.1875 14.2188C2.1875 11.028 3.45508 7.96777 5.71138 5.71147C7.96767 3.45517 11.0279 2.1876 14.2188 2.1876C17.4096 2.1876 20.4698 3.45517 22.7261 5.71147C24.9824 7.96777 26.25 11.028 26.25 14.2188Z" fill="#06536B"/>
</g>
<defs>
<clipPath id="clip0_10_106">
<rect width="35" height="35" fill="white"/>
</clipPath>
</defs>
</svg>
