<svg width="20" height="20" viewBox="0 0 20 20" fill="none" xmlns="http://www.w3.org/2000/svg">
<g clip-path="url(#clip0_17_89)">
<path d="M10.0637 2.49854H10.175C11.2025 2.50229 16.4088 2.53979 17.8125 2.91729C18.2369 3.0325 18.6236 3.25706 18.9339 3.56855C19.2443 3.88003 19.4675 4.26752 19.5812 4.69229C19.7075 5.16729 19.7962 5.79604 19.8563 6.44479L19.8688 6.57479L19.8962 6.89979L19.9062 7.02979C19.9875 8.17229 19.9975 9.24228 19.9987 9.47604V9.56979C19.9975 9.81229 19.9862 10.9548 19.8962 12.1448L19.8862 12.276L19.875 12.406C19.8125 13.121 19.72 13.831 19.5812 14.3535C19.4679 14.7785 19.2448 15.1661 18.9344 15.4777C18.6239 15.7892 18.237 16.0137 17.8125 16.1285C16.3625 16.5185 10.8512 16.546 10.0875 16.5473H9.91C9.52375 16.5473 7.92625 16.5398 6.25125 16.4823L6.03875 16.4748L5.93 16.4698L5.71625 16.461L5.5025 16.4523C4.115 16.391 2.79375 16.2923 2.185 16.1273C1.76061 16.0125 1.37383 15.7883 1.06341 15.477C0.752979 15.1657 0.529809 14.7782 0.41625 14.3535C0.2775 13.8323 0.185 13.121 0.1225 12.406L0.1125 12.2748L0.1025 12.1448C0.0408095 11.2978 0.00662483 10.449 0 9.59978L0 9.44604C0.0025 9.17729 0.0125 8.24853 0.08 7.22353L0.08875 7.09479L0.0925 7.02979L0.1025 6.89979L0.13 6.57479L0.1425 6.44479C0.2025 5.79604 0.29125 5.16604 0.4175 4.69229C0.530867 4.26734 0.753953 3.87967 1.06439 3.56814C1.37483 3.2566 1.76171 3.03215 2.18625 2.91729C2.795 2.75479 4.11625 2.65479 5.50375 2.59229L5.71625 2.58354L5.93125 2.57604L6.03875 2.57229L6.2525 2.56354C7.44213 2.52525 8.63226 2.504 9.8225 2.49979H10.0637V2.49854ZM8 6.51103V12.5335L13.1962 9.52353L8 6.51103Z" fill="white"/>
</g>
<defs>
<clipPath id="clip0_17_89">
<rect width="20" height="20" fill="white"/>
</clipPath>
</defs>
</svg>
